<svg xmlns="http://www.w3.org/2000/svg" width="445.867" height="438.808"><defs><clipPath id="a" clipPathUnits="userSpaceOnUse"><path d="M-143.188-451.045h477.714V26.781h-477.714z" style="stroke-width:1"/></clipPath><clipPath id="b" clipPathUnits="userSpaceOnUse"><path d="M-143.189-451.045h477.714V26.78h-477.714z" style="stroke-width:1"/></clipPath><clipPath id="af" clipPathUnits="userSpaceOnUse"><path d="M0 0h477.714v477.826H0Z" style="stroke-width:1"/></clipPath><clipPath id="ae" clipPathUnits="userSpaceOnUse"><path d="M0 0h477.714v477.826H0Z" style="stroke-width:1"/></clipPath><clipPath id="bR" clipPathUnits="userSpaceOnUse"><path d="M0 0h477.714v477.826H0Z" style="stroke-width:1"/></clipPath><clipPath id="aZ" clipPathUnits="userSpaceOnUse"><path d="M0 0h477.714v477.826H0Z" style="stroke-width:1"/></clipPath><clipPath id="aY" clipPathUnits="userSpaceOnUse"><path d="M0 0h477.714v477.826H0Z" style="stroke-width:1"/></clipPath><clipPath id="aC" clipPathUnits="userSpaceOnUse"><path d="M0 0h477.714v477.826H0Z" style="stroke-width:1"/></clipPath><clipPath id="aB" clipPathUnits="userSpaceOnUse"><path d="M0 0h477.714v477.826H0Z" style="stroke-width:1"/></clipPath><clipPath id="y" clipPathUnits="userSpaceOnUse"><path d="M0 0h477.714v477.826H0Z" style="stroke-width:1"/></clipPath><clipPath id="ah" clipPathUnits="userSpaceOnUse"><path d="M-161.382-246.31H316.33v477.825h-477.714Z" style="stroke-width:1"/></clipPath><clipPath id="aJ" clipPathUnits="userSpaceOnUse"><path d="M-409.708-135.647H68.006V342.18h-477.714Z" style="stroke-width:1"/></clipPath><clipPath id="am" clipPathUnits="userSpaceOnUse"><path d="M-409.752-224.101H67.962v477.826h-477.714Z" style="stroke-width:1"/></clipPath><clipPath id="ay" clipPathUnits="userSpaceOnUse"><path d="M-250.48-204.173h477.715v477.826H-250.48z" style="stroke-width:1"/></clipPath><clipPath id="bt" clipPathUnits="userSpaceOnUse"><path d="M-278.105-26.288h477.714v477.826h-477.714z" style="stroke-width:1"/></clipPath><clipPath id="aE" clipPathUnits="userSpaceOnUse"><path d="M-161.338-157.856h477.714V319.97h-477.714z" style="stroke-width:1"/></clipPath><clipPath id="aA" clipPathUnits="userSpaceOnUse"><path d="M-380.65-223.616H97.064V254.21H-380.65Z" style="stroke-width:1"/></clipPath><clipPath id="aj" clipPathUnits="userSpaceOnUse"><path d="M-146.264-224.101H331.45v477.826h-477.714z" style="stroke-width:1"/></clipPath><clipPath id="bq" clipPathUnits="userSpaceOnUse"><path d="M-381.943-46.715H95.771V431.11h-477.714z" style="stroke-width:1"/></clipPath><clipPath id="d" clipPathUnits="userSpaceOnUse"><path d="M-101.04-451.045h477.714V26.781H-101.04z" style="stroke-width:1"/></clipPath><clipPath id="aX" clipPathUnits="userSpaceOnUse"><path d="M-380.606-135.162H97.108v477.827h-477.714Z" style="stroke-width:1"/></clipPath><clipPath id="al" clipPathUnits="userSpaceOnUse"><path d="M-409.752-224.101H67.962v477.826h-477.714Z" style="stroke-width:1"/></clipPath><clipPath id="aF" clipPathUnits="userSpaceOnUse"><path d="M-163.917-161.576h477.714V316.25h-477.714z" style="stroke-width:1"/></clipPath><clipPath id="c" clipPathUnits="userSpaceOnUse"><path d="M-156.953-451.045h477.714V26.78h-477.714z" style="stroke-width:1"/></clipPath><clipPath id="ba" clipPathUnits="userSpaceOnUse"><path d="M-164.058-72.239h477.714v477.826h-477.714z" style="stroke-width:1"/></clipPath><clipPath id="l" clipPathUnits="userSpaceOnUse"><path d="M-421.89 26.78H55.824v-477.825H-421.89Z" style="stroke-width:1"/></clipPath><clipPath id="ak" clipPathUnits="userSpaceOnUse"><path d="M-146.264-224.101H331.45v477.826h-477.714z" style="stroke-width:1"/></clipPath><clipPath id="az" clipPathUnits="userSpaceOnUse"><path d="M-278.008-204.08h477.714v477.826h-477.714z" style="stroke-width:1"/></clipPath><clipPath id="br" clipPathUnits="userSpaceOnUse"><path d="M-147.148-45.916h477.714V431.91h-477.714z" style="stroke-width:1"/></clipPath><clipPath id="bs" clipPathUnits="userSpaceOnUse"><path d="M-250.577-26.38h477.714v477.826h-477.714Z" style="stroke-width:1"/></clipPath><clipPath id="aD" clipPathUnits="userSpaceOnUse"><path d="M-163.917-161.576h477.714V316.25h-477.714z" style="stroke-width:1"/></clipPath><clipPath id="f" clipPathUnits="userSpaceOnUse"><path d="M-101.156-451.045h477.714V26.781h-477.714z" style="stroke-width:1"/></clipPath><clipPath id="aG" clipPathUnits="userSpaceOnUse"><path d="M-146.22-135.647h477.714V342.18H-146.22Z" style="stroke-width:1"/></clipPath><clipPath id="aH" clipPathUnits="userSpaceOnUse"><path d="M-146.22-135.647h477.714V342.18H-146.22Z" style="stroke-width:1"/></clipPath><clipPath id="aI" clipPathUnits="userSpaceOnUse"><path d="M-409.708-135.647H68.006V342.18h-477.714Z" style="stroke-width:1"/></clipPath><clipPath id="k" clipPathUnits="userSpaceOnUse"><path d="M-421.89 26.781H55.824v-477.826H-421.89Z" style="stroke-width:1"/></clipPath><clipPath id="g" clipPathUnits="userSpaceOnUse"><path d="M-101.156-451.045h477.714V26.78h-477.714z" style="stroke-width:1"/></clipPath><clipPath id="h" clipPathUnits="userSpaceOnUse"><path d="M-114.92-451.045h477.714V26.78H-114.92z" style="stroke-width:1"/></clipPath><clipPath id="i" clipPathUnits="userSpaceOnUse"><path d="M-143.212-451.045h477.714V26.781h-477.714Z" style="stroke-width:1"/></clipPath><clipPath id="j" clipPathUnits="userSpaceOnUse"><path d="M-143.212-451.045h477.714V26.781h-477.714Z" style="stroke-width:1"/></clipPath><clipPath id="s" clipPathUnits="userSpaceOnUse"><path d="M-344.22-450.193h477.714V27.633H-344.22Z" style="stroke-width:1"/></clipPath><clipPath id="m" clipPathUnits="userSpaceOnUse"><path d="M-435.654 26.78H42.06v-477.825h-477.714z" style="stroke-width:1"/></clipPath><clipPath id="n" clipPathUnits="userSpaceOnUse"><path d="M-464.657 26.781H13.057v-477.826h-477.714z" style="stroke-width:1"/></clipPath><clipPath id="o" clipPathUnits="userSpaceOnUse"><path d="M-464.657 26.781H13.057v-477.826h-477.714z" style="stroke-width:1"/></clipPath><clipPath id="p" clipPathUnits="userSpaceOnUse"><path d="M-221.16 27.633h477.714v-477.826H-221.16z" style="stroke-width:1"/></clipPath><clipPath id="q" clipPathUnits="userSpaceOnUse"><path d="M-221.16 27.633h477.714v-477.826H-221.16z" style="stroke-width:1"/></clipPath><clipPath id="r" clipPathUnits="userSpaceOnUse"><path d="M-234.925 27.633H242.79v-477.826h-477.714z" style="stroke-width:1"/></clipPath><clipPath id="U" clipPathUnits="userSpaceOnUse"><path d="M-279.187-322.712h477.714v477.826h-477.714z" style="stroke-width:1"/></clipPath><clipPath id="T" clipPathUnits="userSpaceOnUse"><path d="M-380.029-364.63H97.685v477.826h-477.714Z" style="stroke-width:1"/></clipPath><clipPath id="t" clipPathUnits="userSpaceOnUse"><path d="M-344.22-450.193h477.714V27.633H-344.22Z" style="stroke-width:1"/></clipPath><clipPath id="u" clipPathUnits="userSpaceOnUse"><path d="M-357.984-450.193H119.73V27.633h-477.714z" style="stroke-width:1"/></clipPath><clipPath id="v" clipPathUnits="userSpaceOnUse"><path d="M-298.594-450.193H179.12V27.633h-477.714Z" style="stroke-width:1"/></clipPath><clipPath id="w" clipPathUnits="userSpaceOnUse"><path d="M-298.594-450.193H179.12V27.633h-477.714Z" style="stroke-width:1"/></clipPath><clipPath id="x" clipPathUnits="userSpaceOnUse"><path d="M-312.358-450.193h477.714V27.633h-477.714z" style="stroke-width:1"/></clipPath><clipPath id="z" clipPathUnits="userSpaceOnUse"><path d="M-163.34-391.045h477.715V86.781H-163.34z" style="stroke-width:1"/></clipPath><clipPath id="A" clipPathUnits="userSpaceOnUse"><path d="M-160.761-387.325h477.714V90.501h-477.714z" style="stroke-width:1"/></clipPath><clipPath id="B" clipPathUnits="userSpaceOnUse"><path d="M-163.34-391.045h477.714V86.781H-163.34z" style="stroke-width:1"/></clipPath><clipPath id="C" clipPathUnits="userSpaceOnUse"><path d="M-145.643-365.115h477.714V112.71h-477.714Z" style="stroke-width:1"/></clipPath><clipPath id="D" clipPathUnits="userSpaceOnUse"><path d="M-145.643-365.115h477.714V112.71h-477.714Z" style="stroke-width:1"/></clipPath><clipPath id="E" clipPathUnits="userSpaceOnUse"><path d="M-409.13-365.115H68.582V112.71H-409.13Z" style="stroke-width:1"/></clipPath><clipPath id="F" clipPathUnits="userSpaceOnUse"><path d="M-409.13-365.115H68.582V112.71H-409.13Z" style="stroke-width:1"/></clipPath><clipPath id="G" clipPathUnits="userSpaceOnUse"><path d="M-408.737-364.722H68.977v477.826h-477.714Z" style="stroke-width:1"/></clipPath><clipPath id="H" clipPathUnits="userSpaceOnUse"><path d="M-408.737-364.722H68.977v477.826h-477.714Z" style="stroke-width:1"/></clipPath><clipPath id="I" clipPathUnits="userSpaceOnUse"><path d="M-432.333-364.722H45.38v477.826h-477.714Z" style="stroke-width:1"/></clipPath><clipPath id="J" clipPathUnits="userSpaceOnUse"><path d="M-459.469-365.115H18.245V112.71h-477.714Z" style="stroke-width:1"/></clipPath><clipPath id="K" clipPathUnits="userSpaceOnUse"><path d="M-459.469-365.115H18.245V112.71h-477.714Z" style="stroke-width:1"/></clipPath><clipPath id="L" clipPathUnits="userSpaceOnUse"><path d="M-277.387-345.092h477.714v477.826h-477.714z" style="stroke-width:1"/></clipPath><clipPath id="M" clipPathUnits="userSpaceOnUse"><path d="M-277.387-345.092h477.714v477.826h-477.714z" style="stroke-width:1"/></clipPath><clipPath id="N" clipPathUnits="userSpaceOnUse"><path d="M-364.298-390.748h477.714V87.078h-477.714z" style="stroke-width:1"/></clipPath><clipPath id="O" clipPathUnits="userSpaceOnUse"><path d="M-364.298-390.748h477.714V87.078h-477.714z" style="stroke-width:1"/></clipPath><clipPath id="P" clipPathUnits="userSpaceOnUse"><path d="M-381.224-365.521H96.49v477.826h-477.714Z" style="stroke-width:1"/></clipPath><clipPath id="Q" clipPathUnits="userSpaceOnUse"><path d="M-146.43-364.722h477.715v477.826H-146.43z" style="stroke-width:1"/></clipPath><clipPath id="R" clipPathUnits="userSpaceOnUse"><path d="M-249.858-345.186h477.714V132.64h-477.714Z" style="stroke-width:1"/></clipPath><clipPath id="S" clipPathUnits="userSpaceOnUse"><path d="M-277.387-345.094h477.714v477.826h-477.714z" style="stroke-width:1"/></clipPath><clipPath id="ab" clipPathUnits="userSpaceOnUse"><path d="M-318.808 29.65h477.714v-477.827h-477.714Z" style="stroke-width:1"/></clipPath><clipPath id="bT" clipPathUnits="userSpaceOnUse"><path d="M-209.441-249.923h477.714v477.826h-477.714z" style="stroke-width:1"/></clipPath><clipPath id="V" clipPathUnits="userSpaceOnUse"><path d="M-279.187-322.712h477.714v477.826h-477.714z" style="stroke-width:1"/></clipPath><clipPath id="W" clipPathUnits="userSpaceOnUse"><path d="M-279.187-274.683h477.714v477.826h-477.714z" style="stroke-width:1"/></clipPath><clipPath id="X" clipPathUnits="userSpaceOnUse"><path d="M-234.962-437.588h477.714V40.238h-477.714z" style="stroke-width:1"/></clipPath><clipPath id="Y" clipPathUnits="userSpaceOnUse"><path d="M-232.023-436.92H245.69V40.904h-477.714z" style="stroke-width:1"/></clipPath><clipPath id="Z" clipPathUnits="userSpaceOnUse"><path d="M-110.277-409.302h477.714V68.524h-477.714z" style="stroke-width:1"/></clipPath><clipPath id="aa" clipPathUnits="userSpaceOnUse"><path d="M-298.267-437.588h477.714V40.238h-477.714z" style="stroke-width:1"/></clipPath><clipPath id="ad" clipPathUnits="userSpaceOnUse"><path d="M-338.441 29.65h477.714v-477.827h-477.714z" style="stroke-width:1"/></clipPath><clipPath id="ac" clipPathUnits="userSpaceOnUse"><path d="M-328.625 29.65h477.714v-477.827h-477.714z" style="stroke-width:1"/></clipPath><clipPath id="bU" clipPathUnits="userSpaceOnUse"><path d="M-231.034-249.923H246.68v477.826h-477.714Z" style="stroke-width:1"/></clipPath><clipPath id="an" clipPathUnits="userSpaceOnUse"><path d="M-409.358-223.708H68.355v477.826h-477.714Z" style="stroke-width:1"/></clipPath><clipPath id="ao" clipPathUnits="userSpaceOnUse"><path d="M-409.358-223.708H68.355v477.826h-477.714Z" style="stroke-width:1"/></clipPath><clipPath id="ap" clipPathUnits="userSpaceOnUse"><path d="M-432.954-223.708H44.76v477.826h-477.714Z" style="stroke-width:1"/></clipPath><clipPath id="aq" clipPathUnits="userSpaceOnUse"><path d="M-460.09-224.101H17.624v477.826H-460.09Z" style="stroke-width:1"/></clipPath><clipPath id="ar" clipPathUnits="userSpaceOnUse"><path d="M-460.09-224.101H17.624v477.826H-460.09Z" style="stroke-width:1"/></clipPath><clipPath id="as" clipPathUnits="userSpaceOnUse"><path d="M-278.008-204.079h477.714v477.826h-477.714z" style="stroke-width:1"/></clipPath><clipPath id="at" clipPathUnits="userSpaceOnUse"><path d="M-278.008-204.079h477.714v477.826h-477.714z" style="stroke-width:1"/></clipPath><clipPath id="au" clipPathUnits="userSpaceOnUse"><path d="M-364.92-249.735h477.714v477.826H-364.92z" style="stroke-width:1"/></clipPath><clipPath id="av" clipPathUnits="userSpaceOnUse"><path d="M-364.92-249.735h477.714v477.826H-364.92z" style="stroke-width:1"/></clipPath><clipPath id="aw" clipPathUnits="userSpaceOnUse"><path d="M-381.845-224.507H95.869v477.826h-477.714Z" style="stroke-width:1"/></clipPath><clipPath id="ax" clipPathUnits="userSpaceOnUse"><path d="M-147.05-223.708h477.714v477.826H-147.05Z" style="stroke-width:1"/></clipPath><clipPath id="aK" clipPathUnits="userSpaceOnUse"><path d="M-409.314-135.254H68.4v477.826h-477.714Z" style="stroke-width:1"/></clipPath><clipPath id="aL" clipPathUnits="userSpaceOnUse"><path d="M-409.314-135.254H68.4v477.826h-477.714Z" style="stroke-width:1"/></clipPath><clipPath id="aM" clipPathUnits="userSpaceOnUse"><path d="M-432.91-135.254H44.804v477.826H-432.91Z" style="stroke-width:1"/></clipPath><clipPath id="aN" clipPathUnits="userSpaceOnUse"><path d="M-460.046-135.647H17.668V342.18h-477.714Z" style="stroke-width:1"/></clipPath><clipPath id="aO" clipPathUnits="userSpaceOnUse"><path d="M-460.046-135.647H17.668V342.18h-477.714Z" style="stroke-width:1"/></clipPath><clipPath id="aP" clipPathUnits="userSpaceOnUse"><path d="M-277.964-115.624H199.75v477.826h-477.714Z" style="stroke-width:1"/></clipPath><clipPath id="aQ" clipPathUnits="userSpaceOnUse"><path d="M-277.964-115.624H199.75v477.826h-477.714Z" style="stroke-width:1"/></clipPath><clipPath id="aR" clipPathUnits="userSpaceOnUse"><path d="M-364.875-161.28h477.714v477.826h-477.714Z" style="stroke-width:1"/></clipPath><clipPath id="aS" clipPathUnits="userSpaceOnUse"><path d="M-364.875-161.28h477.714v477.826h-477.714z" style="stroke-width:1"/></clipPath><clipPath id="aT" clipPathUnits="userSpaceOnUse"><path d="M-381.801-136.053H95.913v477.826h-477.714Z" style="stroke-width:1"/></clipPath><clipPath id="aU" clipPathUnits="userSpaceOnUse"><path d="M-147.006-135.254h477.714v477.826h-477.714z" style="stroke-width:1"/></clipPath><clipPath id="aV" clipPathUnits="userSpaceOnUse"><path d="M-250.435-115.718h477.714v477.826h-477.714z" style="stroke-width:1"/></clipPath><clipPath id="aW" clipPathUnits="userSpaceOnUse"><path d="M-277.964-115.626H199.75v477.827h-477.714Z" style="stroke-width:1"/></clipPath><clipPath id="bB" clipPathUnits="userSpaceOnUse"><path d="M-240.252-165.465h477.714v477.826h-477.714Z" style="stroke-width:1"/></clipPath><clipPath id="bn" clipPathUnits="userSpaceOnUse"><path d="M-278.105-26.287h477.714V451.54h-477.714z" style="stroke-width:1"/></clipPath><clipPath id="bA" clipPathUnits="userSpaceOnUse"><path d="M-235.387-165.86h477.714v477.827h-477.714z" style="stroke-width:1"/></clipPath><clipPath id="be" clipPathUnits="userSpaceOnUse"><path d="M-146.361-46.31h477.714v477.827h-477.714Z" style="stroke-width:1"/></clipPath><clipPath id="bv" clipPathUnits="userSpaceOnUse"><path d="M-214.27-161.414h477.714v477.826H-214.27z" style="stroke-width:1"/></clipPath><clipPath id="bk" clipPathUnits="userSpaceOnUse"><path d="M-460.187-46.31H17.527v477.827h-477.714Z" style="stroke-width:1"/></clipPath><clipPath id="bS" clipPathUnits="userSpaceOnUse"><path d="M-238.714-241.24H239v477.827h-477.714z" style="stroke-width:1"/></clipPath><clipPath id="bz" clipPathUnits="userSpaceOnUse"><path d="M-230.615-160.999h477.714v477.826h-477.714z" style="stroke-width:1"/></clipPath><clipPath id="bo" clipPathUnits="userSpaceOnUse"><path d="M-365.017-71.942h477.714v477.826h-477.714z" style="stroke-width:1"/></clipPath><clipPath id="by" clipPathUnits="userSpaceOnUse"><path d="M-227.908-157.62h477.713v477.826h-477.713z" style="stroke-width:1"/></clipPath><clipPath id="bi" clipPathUnits="userSpaceOnUse"><path d="M-409.456-45.916H68.258V431.91h-477.714Z" style="stroke-width:1"/></clipPath><clipPath id="bp" clipPathUnits="userSpaceOnUse"><path d="M-365.017-71.942h477.714v477.826h-477.714z" style="stroke-width:1"/></clipPath><clipPath id="bQ" clipPathUnits="userSpaceOnUse"><path d="M-220.419-258.763h477.714v477.826h-477.714z" style="stroke-width:1"/></clipPath><clipPath id="bh" clipPathUnits="userSpaceOnUse"><path d="M-409.456-45.916H68.258V431.91h-477.714Z" style="stroke-width:1"/></clipPath><clipPath id="bl" clipPathUnits="userSpaceOnUse"><path d="M-460.187-46.31H17.527v477.827h-477.714Z" style="stroke-width:1"/></clipPath><clipPath id="bj" clipPathUnits="userSpaceOnUse"><path d="M-433.052-45.916H44.662V431.91h-477.714Z" style="stroke-width:1"/></clipPath><clipPath id="bg" clipPathUnits="userSpaceOnUse"><path d="M-409.85-46.31H67.866v477.827H-409.85z" style="stroke-width:1"/></clipPath><clipPath id="bd" clipPathUnits="userSpaceOnUse"><path d="M-146.361-46.31h477.714v477.827h-477.714Z" style="stroke-width:1"/></clipPath><clipPath id="bw" clipPathUnits="userSpaceOnUse"><path d="M-221.221-164.512h477.714v477.827h-477.714Z" style="stroke-width:1"/></clipPath><clipPath id="bx" clipPathUnits="userSpaceOnUse"><path d="M-221.293-156.5h477.714v477.825h-477.714z" style="stroke-width:1"/></clipPath><clipPath id="bc" clipPathUnits="userSpaceOnUse"><path d="M-164.058-72.239h477.714v477.826h-477.714z" style="stroke-width:1"/></clipPath><clipPath id="bm" clipPathUnits="userSpaceOnUse"><path d="M-278.105-26.287h477.714V451.54h-477.714z" style="stroke-width:1"/></clipPath><clipPath id="bf" clipPathUnits="userSpaceOnUse"><path d="M-409.85-46.31H67.866v477.827H-409.85z" style="stroke-width:1"/></clipPath><clipPath id="bb" clipPathUnits="userSpaceOnUse"><path d="M-161.48-68.519h477.714v477.827H-161.48z" style="stroke-width:1"/></clipPath><clipPath id="bC" clipPathUnits="userSpaceOnUse"><path d="M-244.273-161.093h477.714v477.826h-477.714Z" style="stroke-width:1"/></clipPath><clipPath id="bD" clipPathUnits="userSpaceOnUse"><path d="M-246.133-162.403H231.58v477.826h-477.714Z" style="stroke-width:1"/></clipPath><clipPath id="bE" clipPathUnits="userSpaceOnUse"><path d="M-250.012-164.367h477.714v477.826h-477.714Z" style="stroke-width:1"/></clipPath><clipPath id="bF" clipPathUnits="userSpaceOnUse"><path d="M-252.923-159.487h477.714V318.34h-477.714Z" style="stroke-width:1"/></clipPath><clipPath id="bH" clipPathUnits="userSpaceOnUse"><path d="M-262.531-161.566h477.714V316.26h-477.714Z" style="stroke-width:1"/></clipPath><clipPath id="bP" clipPathUnits="userSpaceOnUse"><path d="M-237.892-251.064h477.714v477.826h-477.714Z" style="stroke-width:1"/></clipPath><clipPath id="bu" clipPathUnits="userSpaceOnUse"><path d="M-380.748-45.824H96.966v477.826h-477.714Z" style="stroke-width:1"/></clipPath><clipPath id="bG" clipPathUnits="userSpaceOnUse"><path d="M-257.094-163.34H220.62v477.825h-477.714Z" style="stroke-width:1"/></clipPath><clipPath id="bI" clipPathUnits="userSpaceOnUse"><path d="M-266.33-159.9h477.714v477.827H-266.33z" style="stroke-width:1"/></clipPath><clipPath id="bJ" clipPathUnits="userSpaceOnUse"><path d="M-271.613-161.093H206.1v477.826h-477.714Z" style="stroke-width:1"/></clipPath><clipPath id="bK" clipPathUnits="userSpaceOnUse"><path d="M-273.474-162.403H204.24v477.826h-477.714Z" style="stroke-width:1"/></clipPath><clipPath id="bL" clipPathUnits="userSpaceOnUse"><path d="M-277.353-164.367h477.714v477.826h-477.714z" style="stroke-width:1"/></clipPath><clipPath id="bM" clipPathUnits="userSpaceOnUse"><path d="M-281.41-157.327h477.713V320.5H-281.41Z" style="stroke-width:1"/></clipPath><clipPath id="bN" clipPathUnits="userSpaceOnUse"><path d="M-284.923-162.185h477.714v477.827h-477.714Z" style="stroke-width:1"/></clipPath><clipPath id="bO" clipPathUnits="userSpaceOnUse"><path d="M-289.642-161.719h477.714v477.827h-477.714Z" style="stroke-width:1"/></clipPath><clipPath id="e" clipPathUnits="userSpaceOnUse"><path d="M-101.04-451.045h477.714V26.781H-101.04z" style="stroke-width:1"/></clipPath><clipPath id="ag" clipPathUnits="userSpaceOnUse"><path d="M-163.96-250.031h477.713v477.826H-163.96Z" style="stroke-width:1"/></clipPath><clipPath id="ai" clipPathUnits="userSpaceOnUse"><path d="M-163.96-250.031h477.713v477.826H-163.96Z" style="stroke-width:1"/></clipPath></defs><path d="M0 0h13.765Z" clip-path="url(#a)" style="fill:#0e0f0f;fill-opacity:1;fill-rule:nonzero;stroke:none" transform="matrix(.9646 0 0 -.9646 131.24 13.518)"/><path d="M0 0h9.238" clip-path="url(#b)" style="fill:none;stroke:#0e0f0f;stroke-width:.75;stroke-linecap:butt;stroke-linejoin:miter;stroke-miterlimit:10;stroke-dasharray:none;stroke-opacity:1" transform="matrix(.9646 0 0 -.9646 131.241 13.518)"/><path d="M0 0c-2.13-.79-4.772-2.139-6.411-3.567L-5.12 0l-1.291 3.566C-4.772 2.138-2.13.79 0 0" clip-path="url(#c)" style="fill:#0e0f0f;fill-opacity:1;fill-rule:nonzero;stroke:none" transform="matrix(.9646 0 0 -.9646 144.518 13.518)"/><path d="M0 0c0-7.602-6.162-13.764-13.764-13.764-7.602 0-13.765 6.162-13.765 13.764 0 7.602 6.163 13.764 13.765 13.764S0 7.602 0 0" clip-path="url(#d)" style="fill:#89bed4;fill-opacity:1;fill-rule:nonzero;stroke:none" transform="matrix(.9646 0 0 -.9646 90.585 13.518)"/><path d="M0 0c0-7.602-6.162-13.764-13.764-13.764-7.602 0-13.765 6.162-13.765 13.764 0 7.602 6.163 13.764 13.765 13.764S0 7.602 0 0Z" clip-path="url(#e)" style="fill:none;stroke:#0e0f0f;stroke-width:.5;stroke-linecap:butt;stroke-linejoin:miter;stroke-miterlimit:10;stroke-dasharray:none;stroke-opacity:1" transform="matrix(.9646 0 0 -.9646 90.585 13.518)"/><text xml:space="preserve" x="194.447" y="-679.974" style="font-style:italic;font-variant:normal;font-weight:400;font-stretch:normal;font-size:6.82821px;font-family:&quot;Times New Roman&quot;;-inkscape-font-specification:TimesNewRomanPS-ItalicMT;writing-mode:lr-tb;fill:#0e0f0f;fill-opacity:1;fill-rule:nonzero;stroke:none;stroke-width:.72345" transform="matrix(1.33333 0 0 1.33333 -184.477 922.537)"><tspan x="194.447" y="-679.974" style="stroke-width:.72345">a</tspan></text><path d="M0 0h13.764" clip-path="url(#f)" style="fill:#0e0f0f;fill-opacity:1;fill-rule:nonzero;stroke:none" transform="matrix(.9646 0 0 -.9646 90.696 13.518)"/><path d="M0 0h9.238" clip-path="url(#g)" style="fill:none;stroke:#0e0f0f;stroke-width:.75;stroke-linecap:butt;stroke-linejoin:miter;stroke-miterlimit:10;stroke-dasharray:none;stroke-opacity:1" transform="matrix(.9646 0 0 -.9646 90.696 13.518)"/><path d="M0 0c-2.13-.79-4.772-2.139-6.411-3.567L-5.12 0l-1.291 3.566C-4.772 2.138-2.13.79 0 0" clip-path="url(#h)" style="fill:#0e0f0f;fill-opacity:1;fill-rule:nonzero;stroke:none" transform="matrix(.9646 0 0 -.9646 103.973 13.518)"/><path d="M0 0c0-7.602-6.162-13.764-13.764-13.764-7.602 0-13.765 6.162-13.765 13.764 0 7.602 6.163 13.764 13.765 13.764S0 7.602 0 0" clip-path="url(#i)" style="fill:#f69756;fill-opacity:1;fill-rule:nonzero;stroke:none" transform="matrix(.9646 0 0 -.9646 131.264 13.518)"/><path d="M0 0c0-7.602-6.162-13.764-13.764-13.764-7.602 0-13.765 6.162-13.765 13.764 0 7.602 6.163 13.764 13.765 13.764S0 7.602 0 0Z" clip-path="url(#j)" style="fill:none;stroke:#0e0f0f;stroke-width:.5;stroke-linecap:butt;stroke-linejoin:miter;stroke-miterlimit:10;stroke-dasharray:none;stroke-opacity:1" transform="matrix(.9646 0 0 -.9646 131.264 13.518)"/><text xml:space="preserve" x="224.832" y="-679.871" style="font-style:italic;font-variant:normal;font-weight:400;font-stretch:normal;font-size:6.82821px;font-family:&quot;Times New Roman&quot;;-inkscape-font-specification:TimesNewRomanPS-ItalicMT;writing-mode:lr-tb;fill:#0e0f0f;fill-opacity:1;fill-rule:nonzero;stroke:none;stroke-width:.72345" transform="matrix(1.33333 0 0 1.33333 -184.477 922.537)"><tspan x="224.832" y="-679.871" style="stroke-width:.72345">P</tspan></text><path d="M0 0h13.764" clip-path="url(#k)" style="fill:#0e0f0f;fill-opacity:1;fill-rule:nonzero;stroke:none" transform="matrix(.9646 0 0 -.9646 400.076 13.518)"/><path d="M0 0h9.238" clip-path="url(#l)" style="fill:none;stroke:#0e0f0f;stroke-width:.75;stroke-linecap:butt;stroke-linejoin:miter;stroke-miterlimit:10;stroke-dasharray:none;stroke-opacity:1" transform="matrix(.9646 0 0 -.9646 400.076 13.518)"/><path d="M0 0c-2.13-.79-4.772-2.139-6.411-3.567L-5.12 0l-1.291 3.566C-4.772 2.138-2.13.79 0 0" clip-path="url(#m)" style="fill:#0e0f0f;fill-opacity:1;fill-rule:nonzero;stroke:none" transform="matrix(.9646 0 0 -.9646 413.353 13.518)"/><path d="M0 0c0-7.602-6.163-13.764-13.764-13.764-7.602 0-13.765 6.162-13.765 13.764 0 7.602 6.163 13.764 13.765 13.764C-6.163 13.764 0 7.602 0 0" clip-path="url(#n)" style="fill:#89bed4;fill-opacity:1;fill-rule:nonzero;stroke:none" transform="matrix(.9646 0 0 -.9646 441.33 13.518)"/><path d="M0 0c0-7.602-6.163-13.764-13.764-13.764-7.602 0-13.765 6.162-13.765 13.764 0 7.602 6.163 13.764 13.765 13.764C-6.163 13.764 0 7.602 0 0Z" clip-path="url(#o)" style="fill:none;stroke:#0e0f0f;stroke-width:.5;stroke-linecap:butt;stroke-linejoin:miter;stroke-miterlimit:10;stroke-dasharray:none;stroke-opacity:1" transform="matrix(.9646 0 0 -.9646 441.33 13.518)"/><text xml:space="preserve" x="457.517" y="-680.39" style="font-style:italic;font-variant:normal;font-weight:400;font-stretch:normal;font-size:6.82821px;font-family:&quot;Times New Roman&quot;;-inkscape-font-specification:TimesNewRomanPS-ItalicMT;writing-mode:lr-tb;fill:#0e0f0f;fill-opacity:1;fill-rule:nonzero;stroke:none;stroke-width:.72345" transform="matrix(1.33333 0 0 1.33333 -184.477 922.537)"><tspan x="457.517" y="-680.39" style="stroke-width:.72345">u</tspan></text><path d="M293.197 672.029H247.4v18.24h45.798z" style="fill:#eef0a8;fill-opacity:1;fill-rule:nonzero;stroke:#0e0f0f;stroke-width:.542588;stroke-linecap:butt;stroke-linejoin:miter;stroke-miterlimit:10;stroke-dasharray:none;stroke-opacity:1" transform="matrix(1.33333 0 0 -1.33333 -184.477 922.537)"/><text xml:space="preserve" x="260.822" y="-678.94" style="font-variant:normal;font-weight:400;font-stretch:normal;font-size:6.82821px;font-family:&quot;Times New Roman&quot;;-inkscape-font-specification:TimesNewRomanPSMT;writing-mode:lr-tb;fill:#231f20;fill-opacity:1;fill-rule:nonzero;stroke:none;stroke-width:.72345" transform="matrix(1.33333 0 0 1.33333 -184.477 922.537)"><tspan x="260.8215 264.99356 268.02527 271.43939 274.4711 276.7449 278.45193" y="-678.94" style="stroke-width:.72345">Layer 1</tspan></text><path d="M0 0h13.764" clip-path="url(#p)" style="fill:#0e0f0f;fill-opacity:1;fill-rule:nonzero;stroke:none" transform="matrix(.9646 0 0 -.9646 206.453 14.34)"/><path d="M0 0h9.238" clip-path="url(#q)" style="fill:none;stroke:#0e0f0f;stroke-width:.75;stroke-linecap:butt;stroke-linejoin:miter;stroke-miterlimit:10;stroke-dasharray:none;stroke-opacity:1" transform="matrix(.9646 0 0 -.9646 206.453 14.34)"/><path d="M0 0c-2.13-.79-4.772-2.139-6.411-3.567L-5.12 0l-1.291 3.566C-4.772 2.138-2.13.79 0 0" clip-path="url(#r)" style="fill:#0e0f0f;fill-opacity:1;fill-rule:nonzero;stroke:none" transform="matrix(.9646 0 0 -.9646 219.73 14.34)"/><text xml:space="preserve" x="405.545" y="-642.904" style="font-variant:normal;font-weight:400;font-stretch:normal;font-size:6.82821px;font-family:&quot;Times New Roman&quot;;-inkscape-font-specification:TimesNewRomanPSMT;writing-mode:lr-tb;fill:#231f20;fill-opacity:1;fill-rule:nonzero;stroke:none;stroke-width:.72345" transform="matrix(1.33333 0 0 1.33333 -184.477 922.537)"><tspan x="405.54507 410.47504 413.50677 416.92087 419.19467 422.22641 424.12463 425.8317 430.76166 434.17578 437.20749 439.48129 442.513 444.41125 447.82535 450.09915 451.80621 455.97824 459.00998 462.42407 465.45581" y="-642.904" style="stroke-width:.72345">Neural Operator Layer</tspan></text><path d="M0 0h13.764" clip-path="url(#s)" style="fill:#0e0f0f;fill-opacity:1;fill-rule:nonzero;stroke:none" transform="matrix(.9646 0 0 -.9646 325.156 14.34)"/><path d="M0 0h9.238" clip-path="url(#t)" style="fill:none;stroke:#0e0f0f;stroke-width:.75;stroke-linecap:butt;stroke-linejoin:miter;stroke-miterlimit:10;stroke-dasharray:none;stroke-opacity:1" transform="matrix(.9646 0 0 -.9646 325.156 14.34)"/><path d="M0 0c-2.13-.79-4.772-2.139-6.411-3.567L-5.12 0l-1.291 3.566C-4.772 2.138-2.13.79 0 0" clip-path="url(#u)" style="fill:#0e0f0f;fill-opacity:1;fill-rule:nonzero;stroke:none" transform="matrix(.9646 0 0 -.9646 338.433 14.34)"/><path d="M0 0h13.764" clip-path="url(#v)" style="fill:#0e0f0f;fill-opacity:1;fill-rule:nonzero;stroke:none" transform="matrix(.9646 0 0 -.9646 281.145 14.34)"/><path d="M0 0h9.238" clip-path="url(#w)" style="fill:none;stroke:#0e0f0f;stroke-width:.75;stroke-linecap:butt;stroke-linejoin:miter;stroke-miterlimit:10;stroke-dasharray:none;stroke-opacity:1" transform="matrix(.9646 0 0 -.9646 281.145 14.34)"/><path d="M0 0c-2.13-.79-4.772-2.139-6.411-3.567L-5.12 0l-1.291 3.566C-4.772 2.138-2.13.79 0 0" clip-path="url(#x)" style="fill:#0e0f0f;fill-opacity:1;fill-rule:nonzero;stroke:none" transform="matrix(.9646 0 0 -.9646 294.422 14.34)"/><path d="M468.267 329.328H109.301v79.753h358.966z" clip-path="url(#y)" style="fill:none;stroke:#0e0f0f;stroke-width:.75;stroke-linecap:butt;stroke-linejoin:miter;stroke-miterlimit:10;stroke-dasharray:none;stroke-opacity:1" transform="matrix(.9646 0 0 -.9646 -6.878 448.596)"/><path d="M396.75 627.383h-145.1v21.52h145.1z" style="fill:#f4f7aa;fill-opacity:1;fill-rule:nonzero;stroke:#0e0f0f;stroke-width:.361725;stroke-linecap:butt;stroke-linejoin:miter;stroke-miterlimit:10;stroke-dasharray:none;stroke-opacity:1" transform="matrix(1.33333 0 0 -1.33333 -184.477 922.537)"/><path d="m0 0-17.697-25.536" clip-path="url(#z)" style="fill:#fff;fill-opacity:1;fill-rule:nonzero;stroke:none" transform="matrix(.9646 0 0 -.9646 150.679 71.394)"/><path d="m0 0-15.119-21.816" clip-path="url(#A)" style="fill:none;stroke:#0e0f0f;stroke-width:.75;stroke-linecap:butt;stroke-linejoin:miter;stroke-miterlimit:10;stroke-dasharray:none;stroke-opacity:1" transform="matrix(.9646 0 0 -.9646 148.192 74.983)"/><path d="M0 0c-1.863-1.3-4.476-2.704-6.583-3.237l3.666-.972L-.72-7.3C-.961-5.14-.564-2.2 0 0" clip-path="url(#B)" style="fill:#0e0f0f;fill-opacity:1;fill-rule:nonzero;stroke:none" transform="matrix(.9646 0 0 -.9646 150.679 71.394)"/><path d="M0 0c0-7.602-6.162-13.764-13.764-13.764-7.602 0-13.765 6.162-13.765 13.764 0 7.602 6.163 13.764 13.765 13.764S0 7.602 0 0" clip-path="url(#C)" style="fill:#89bed4;fill-opacity:1;fill-rule:nonzero;stroke:none" transform="matrix(.9646 0 0 -.9646 133.608 96.406)"/><path d="M0 0c0-7.602-6.162-13.764-13.764-13.764-7.602 0-13.765 6.162-13.765 13.764 0 7.602 6.163 13.764 13.765 13.764S0 7.602 0 0Z" clip-path="url(#D)" style="fill:none;stroke:#0e0f0f;stroke-width:.5;stroke-linecap:butt;stroke-linejoin:miter;stroke-miterlimit:10;stroke-dasharray:none;stroke-opacity:1" transform="matrix(.9646 0 0 -.9646 133.608 96.406)"/><path d="M0 0c0-7.602-6.162-13.764-13.764-13.764-7.602 0-13.765 6.162-13.765 13.764 0 7.602 6.163 13.764 13.765 13.764S0 7.602 0 0" clip-path="url(#E)" style="fill:#eb5745;fill-opacity:1;fill-rule:nonzero;stroke:none" transform="matrix(.9646 0 0 -.9646 387.769 96.406)"/><path d="M0 0c0-7.602-6.162-13.764-13.764-13.764-7.602 0-13.765 6.162-13.765 13.764 0 7.602 6.163 13.764 13.765 13.764S0 7.602 0 0Z" clip-path="url(#F)" style="fill:none;stroke:#0e0f0f;stroke-width:.5;stroke-linecap:butt;stroke-linejoin:miter;stroke-miterlimit:10;stroke-dasharray:none;stroke-opacity:1" transform="matrix(.9646 0 0 -.9646 387.769 96.406)"/><path d="M0 0h23.596" clip-path="url(#G)" style="fill:#0e0f0f;fill-opacity:1;fill-rule:nonzero;stroke:none" transform="matrix(.9646 0 0 -.9646 387.39 96.785)"/><path d="M0 0h19.07" clip-path="url(#H)" style="fill:none;stroke:#0e0f0f;stroke-width:.75;stroke-linecap:butt;stroke-linejoin:miter;stroke-miterlimit:10;stroke-dasharray:none;stroke-opacity:1" transform="matrix(.9646 0 0 -.9646 387.39 96.785)"/><path d="M0 0c-2.13-.79-4.772-2.139-6.411-3.567L-5.12 0l-1.291 3.566C-4.772 2.138-2.13.79 0 0" clip-path="url(#I)" style="fill:#0e0f0f;fill-opacity:1;fill-rule:nonzero;stroke:none" transform="matrix(.9646 0 0 -.9646 410.15 96.785)"/><path d="M0 0c0-7.602-6.162-13.764-13.764-13.764-7.602 0-13.765 6.162-13.765 13.764 0 7.602 6.163 13.764 13.765 13.764S0 7.602 0 0" clip-path="url(#J)" style="fill:#eb5745;fill-opacity:1;fill-rule:nonzero;stroke:none" transform="matrix(.9646 0 0 -.9646 436.325 96.406)"/><path d="M0 0c0-7.602-6.162-13.764-13.764-13.764-7.602 0-13.765 6.162-13.765 13.764 0 7.602 6.163 13.764 13.765 13.764S0 7.602 0 0Z" clip-path="url(#K)" style="fill:none;stroke:#0e0f0f;stroke-width:.5;stroke-linecap:butt;stroke-linejoin:miter;stroke-miterlimit:10;stroke-dasharray:none;stroke-opacity:1" transform="matrix(.9646 0 0 -.9646 436.325 96.406)"/><path d="M0 0c0-7.602-6.162-13.764-13.764-13.764-7.602 0-13.765 6.162-13.765 13.764 0 7.602 6.163 13.764 13.765 13.764S0 7.602 0 0" clip-path="url(#L)" style="fill:#f69756;fill-opacity:1;fill-rule:nonzero;stroke:none" transform="matrix(.9646 0 0 -.9646 260.689 115.72)"/><path d="M0 0c0-7.602-6.162-13.764-13.764-13.764-7.602 0-13.765 6.162-13.765 13.764 0 7.602 6.163 13.764 13.765 13.764S0 7.602 0 0Z" clip-path="url(#M)" style="fill:none;stroke:#0e0f0f;stroke-width:.5;stroke-linecap:butt;stroke-linejoin:miter;stroke-miterlimit:10;stroke-dasharray:none;stroke-opacity:1" transform="matrix(.9646 0 0 -.9646 260.689 115.72)"/><path d="m0 0 16.926-25.227" clip-path="url(#N)" style="fill:#fff;fill-opacity:1;fill-rule:nonzero;stroke:none" transform="matrix(.9646 0 0 -.9646 344.524 71.68)"/><path d="m0 0 14.404-21.468" clip-path="url(#O)" style="fill:none;stroke:#0e0f0f;stroke-width:.75;stroke-linecap:butt;stroke-linejoin:miter;stroke-miterlimit:10;stroke-dasharray:none;stroke-opacity:1" transform="matrix(.9646 0 0 -.9646 344.524 71.68)"/><path d="M0 0c-1.843 1.328-4.435 2.772-6.534 3.336l3.681.916L-.61 7.31C-.884 5.154-.531 2.209 0 0" clip-path="url(#P)" style="fill:#0e0f0f;fill-opacity:1;fill-rule:nonzero;stroke:none" transform="matrix(.9646 0 0 -.9646 360.85 96.014)"/><path d="M0 0c.264.002.529.002.796 0 9.155-.072 15.987-2.662 18.299-3.489 26.033-9.308 38.858-14.369 51.714-15.349 2.624-.2 8.873-.54 15.912-.698 4.614-.103 8.726-.11 12.185-.074" clip-path="url(#Q)" style="fill:none;stroke:#0e0f0f;stroke-width:.75;stroke-linecap:butt;stroke-linejoin:miter;stroke-miterlimit:10;stroke-dasharray:none;stroke-opacity:1" transform="matrix(.9646 0 0 -.9646 134.367 96.785)"/><path d="M0 0c-2.13-.79-4.772-2.139-6.411-3.567L-5.12 0l-1.291 3.566C-4.772 2.138-2.13.79 0 0" clip-path="url(#R)" style="fill:#0e0f0f;fill-opacity:1;fill-rule:nonzero;stroke:none" transform="matrix(.9646 0 0 -.9646 234.135 115.63)"/><path d="M0 0c.262-.002.525-.002.79 0 9.085.072 15.866 2.662 18.159 3.489 25.836 9.308 38.563 14.369 51.322 15.349 2.604.2 8.805.54 15.791.698 4.563.103 8.632.11 12.057.075" clip-path="url(#S)" style="fill:none;stroke:#0e0f0f;stroke-width:.75;stroke-linecap:butt;stroke-linejoin:miter;stroke-miterlimit:10;stroke-dasharray:none;stroke-opacity:1" transform="matrix(.9646 0 0 -.9646 260.689 115.718)"/><path d="M0 0c-2.13-.79-4.772-2.139-6.41-3.567L-5.12 0l-1.29 3.566C-4.772 2.138-2.13.79 0 0" clip-path="url(#T)" style="fill:#0e0f0f;fill-opacity:1;fill-rule:nonzero;stroke:none" transform="matrix(.9646 0 0 -.9646 359.697 96.874)"/><text xml:space="preserve" x="226.848" y="-617.808" style="font-style:italic;font-variant:normal;font-weight:400;font-stretch:normal;font-size:6.82821px;font-family:&quot;Times New Roman&quot;;-inkscape-font-specification:TimesNewRomanPS-ItalicMT;writing-mode:lr-tb;fill:#0e0f0f;fill-opacity:1;fill-rule:nonzero;stroke:none;stroke-width:.72345" transform="matrix(1.33333 0 0 1.33333 -184.477 922.537)"><tspan x="226.848" y="-617.808" style="stroke-width:.72345">v</tspan><tspan x="320.551" y="-603.223" style="stroke-width:.72345">W</tspan></text><text xml:space="preserve" x="415.93" y="-616.493" style="font-variant:normal;font-weight:400;font-stretch:normal;font-size:9.67325px;font-family:&quot;Times New Roman&quot;;-inkscape-font-specification:TimesNewRomanPSMT;writing-mode:lr-tb;fill:#0e0f0f;fill-opacity:1;fill-rule:nonzero;stroke:none;stroke-width:.72345" transform="matrix(1.33333 0 0 1.33333 -184.477 922.537)"><tspan x="415.93" y="-616.493" style="stroke-width:.72345">+</tspan></text><text xml:space="preserve" x="452.911" y="-617.064" style="font-variant:normal;font-weight:400;font-stretch:normal;font-size:9.67325px;font-family:&quot;Times New Roman&quot;;-inkscape-font-specification:TimesNewRomanPSMT;writing-mode:lr-tb;fill:#0e0f0f;fill-opacity:1;fill-rule:nonzero;stroke:none;stroke-width:.72345" transform="matrix(1.33333 0 0 1.33333 -184.477 922.537)"><tspan x="452.911" y="-617.064" style="stroke-width:.72345">σ</tspan></text><text xml:space="preserve" x="293.197" y="-636.959" style="font-style:italic;font-variant:normal;font-weight:400;font-stretch:normal;font-size:10.2423px;font-family:&quot;Times New Roman&quot;;-inkscape-font-specification:TimesNewRomanPS-ItalicMT;writing-mode:lr-tb;fill:#231f20;fill-opacity:1;fill-rule:nonzero;stroke:none;stroke-width:.72345" transform="matrix(1.33333 0 0 1.33333 -184.477 922.537)"><tspan x="293.19736 296.1369" y="-636.959" style="stroke-width:.72345">ʃ </tspan></text><text xml:space="preserve" x="298.693" y="-636.959" style="font-style:italic;font-variant:normal;font-weight:400;font-stretch:normal;font-size:6.82821px;font-family:&quot;Times New Roman&quot;;-inkscape-font-specification:TimesNewRomanPS-ItalicMT;writing-mode:lr-tb;fill:#0e0f0f;fill-opacity:1;fill-rule:nonzero;stroke:none;stroke-width:.72345" transform="matrix(1.33333 0 0 1.33333 -184.477 922.537)"><tspan x="298.69348 301.72519 303.99899 307.0307 308.73776 311.7695" y="-636.959" style="stroke-width:.72345">k(x,y)</tspan></text><text xml:space="preserve" x="313.907" y="-636.959" style="font-style:italic;font-variant:normal;font-weight:400;font-stretch:normal;font-size:6.82821px;font-family:&quot;Times New Roman&quot;;-inkscape-font-specification:TimesNewRomanPS-ItalicMT;writing-mode:lr-tb;fill:#0e0f0f;fill-opacity:1;fill-rule:nonzero;stroke:none;stroke-width:.72345" transform="matrix(1.33333 0 0 1.33333 -184.477 922.537)"><tspan x="313.90674 316.93845 319.21225 322.24399 324.51776 327.93188 331.35965 333.63342 336.66516 338.93893 340.646 345.25504 346.9621 350.37619 352.64999 355.68173 357.95551" y="-636.959" style="stroke-width:.72345">v(y)dμ(y) + b(x) </tspan></text><path d="M0 0v-48.029" clip-path="url(#U)" style="fill:#0e0f0f;fill-opacity:1;fill-rule:nonzero;stroke:none" transform="matrix(.9646 0 0 -.9646 262.425 137.308)"/><path d="M0 0v-35.959" clip-path="url(#V)" style="fill:none;stroke:#231f20;stroke-width:2;stroke-linecap:butt;stroke-linejoin:miter;stroke-miterlimit:10;stroke-dasharray:none;stroke-opacity:1" transform="matrix(.9646 0 0 -.9646 262.425 137.307)"/><path d="M0 0c-2.107 5.68-5.703 12.727-9.512 17.095L0 13.654l9.51 3.441C5.701 12.727 2.105 5.68 0 0" clip-path="url(#W)" style="fill:#231f20;fill-opacity:1;fill-rule:nonzero;stroke:none" transform="matrix(.9646 0 0 -.9646 262.425 183.637)"/><path d="m0 0-.975-.221" clip-path="url(#X)" style="fill:none;stroke:#0e0f0e;stroke-width:.75;stroke-linecap:butt;stroke-linejoin:miter;stroke-miterlimit:10;stroke-dasharray:none;stroke-opacity:1" transform="matrix(.9646 0 0 -.9646 219.766 26.499)"/><path d="m0 0-120.764-27.396" clip-path="url(#Y)" style="fill:none;stroke:#0e0f0e;stroke-width:.75;stroke-linecap:butt;stroke-linejoin:miter;stroke-miterlimit:10;stroke-dasharray:2.014,2.014;stroke-dashoffset:0;stroke-opacity:1" transform="matrix(.9646 0 0 -.9646 216.931 27.142)"/><path d="m0 0-.975-.221" clip-path="url(#Z)" style="fill:none;stroke:#0e0f0e;stroke-width:.75;stroke-linecap:butt;stroke-linejoin:miter;stroke-miterlimit:10;stroke-dasharray:none;stroke-opacity:1" transform="matrix(.9646 0 0 -.9646 99.495 53.783)"/><path d="m0 0 170-28.506" clip-path="url(#aa)" style="fill:none;stroke:#0e0f0f;stroke-width:.75;stroke-linecap:butt;stroke-linejoin:miter;stroke-miterlimit:10;stroke-dasharray:2;stroke-dashoffset:0;stroke-opacity:1" transform="matrix(.9646 0 0 -.9646 280.83 26.499)"/><path d="M348.98 672.029h-45.798v18.24h45.798z" style="fill:#eef0a8;fill-opacity:1;fill-rule:nonzero;stroke:#0e0f0f;stroke-width:.542588;stroke-linecap:butt;stroke-linejoin:miter;stroke-miterlimit:10;stroke-dasharray:none;stroke-opacity:1" transform="matrix(1.33333 0 0 -1.33333 -184.477 922.537)"/><text xml:space="preserve" x="314.422" y="-678.632" style="font-variant:normal;font-weight:400;font-stretch:normal;font-size:6.82821px;font-family:&quot;Times New Roman&quot;;-inkscape-font-specification:TimesNewRomanPSMT;writing-mode:lr-tb;fill:#231f20;fill-opacity:1;fill-rule:nonzero;stroke:none;stroke-width:.72345" transform="matrix(1.33333 0 0 1.33333 -184.477 922.537)"><tspan x="314.42249 318.59454 321.62625 325.04037 328.07208 330.34589 332.05295" y="-678.632" style="stroke-width:.72345">Layer 2</tspan></text><path d="M438.224 672.645h-45.798v18.24h45.798z" style="fill:#eef0a8;fill-opacity:1;fill-rule:nonzero;stroke:#0e0f0f;stroke-width:.542588;stroke-linecap:butt;stroke-linejoin:miter;stroke-miterlimit:10;stroke-dasharray:none;stroke-opacity:1" transform="matrix(1.33333 0 0 -1.33333 -184.477 922.537)"/><text xml:space="preserve" x="405.9" y="-679.454" style="font-variant:normal;font-weight:400;font-stretch:normal;font-size:6.82821px;font-family:&quot;Times New Roman&quot;;-inkscape-font-specification:TimesNewRomanPSMT;writing-mode:lr-tb;fill:#231f20;fill-opacity:1;fill-rule:nonzero;stroke:none;stroke-width:.72345" transform="matrix(1.33333 0 0 1.33333 -184.477 922.537)"><tspan x="405.90045 410.07248 413.10419 416.51831 419.55002 421.82382 423.53088" y="-679.454" style="stroke-width:.72345">Layer L</tspan></text><path d="M0 0c1.073 0 1.856.792 1.856 1.982 0 1.101-.783 2.026-1.856 2.026-1.031 0-1.815-.925-1.815-2.026C-1.815.881-1.155.044 0 0Z" clip-path="url(#ab)" style="fill:none;stroke:#0e0f0f;stroke-width:2;stroke-linecap:butt;stroke-linejoin:miter;stroke-miterlimit:10;stroke-dasharray:none;stroke-opacity:1" transform="matrix(.9646 0 0 -.9646 300.644 16.285)"/><path d="M0 0c1.073 0 1.856.792 1.856 1.982 0 1.101-.783 2.026-1.856 2.026-1.031 0-1.815-.925-1.815-2.026C-1.815.881-1.155.044 0 0Z" clip-path="url(#ac)" style="fill:none;stroke:#0e0f0f;stroke-width:2;stroke-linecap:butt;stroke-linejoin:miter;stroke-miterlimit:10;stroke-dasharray:none;stroke-opacity:1" transform="matrix(.9646 0 0 -.9646 310.113 16.285)"/><path d="M0 0c1.073 0 1.856.792 1.856 1.982 0 1.101-.783 2.026-1.856 2.026-1.031 0-1.815-.925-1.815-2.026C-1.815.881-1.155.044 0 0Z" clip-path="url(#ad)" style="fill:none;stroke:#0e0f0f;stroke-width:2;stroke-linecap:butt;stroke-linejoin:miter;stroke-miterlimit:10;stroke-dasharray:none;stroke-opacity:1" transform="matrix(.9646 0 0 -.9646 319.582 16.285)"/><text xml:space="preserve" x="405.995" y="-540.888" style="font-variant:normal;font-weight:400;font-stretch:normal;font-size:6.82821px;font-family:&quot;Times New Roman&quot;;-inkscape-font-specification:TimesNewRomanPSMT;writing-mode:lr-tb;fill:#231f20;fill-opacity:1;fill-rule:nonzero;stroke:none;stroke-width:.72345" transform="matrix(1.33333 0 0 1.33333 -184.477 922.537)"><tspan x="405.99478 410.92474 413.95648 417.37057 419.64438 422.67609 424.57434 426.2814 431.21136 434.62546 437.6572 439.931 442.96271 444.86096 448.27505 450.54886 452.25592 456.42795 459.45966 462.87378 465.90549" y="-540.888" style="stroke-width:.72345">Neural Operator Layer</tspan></text><path d="M468.889 188.314H109.923v79.753h358.966z" clip-path="url(#ae)" style="fill:none;stroke:#0e0f0f;stroke-width:.75;stroke-linecap:butt;stroke-linejoin:miter;stroke-miterlimit:10;stroke-dasharray:none;stroke-opacity:1" transform="matrix(.9646 0 0 -.9646 -6.878 448.596)"/><path d="M364.919 234.861H164.353v29.746h200.566z" clip-path="url(#af)" style="fill:#f4f7aa;fill-opacity:1;fill-rule:nonzero;stroke:#0e0f0f;stroke-width:.5;stroke-linecap:butt;stroke-linejoin:miter;stroke-miterlimit:10;stroke-dasharray:none;stroke-opacity:1" transform="matrix(.9646 0 0 -.9646 -6.878 448.596)"/><path d="m0 0-17.697-25.536" clip-path="url(#ag)" style="fill:#fff;fill-opacity:1;fill-rule:nonzero;stroke:none" transform="matrix(.9646 0 0 -.9646 151.278 207.416)"/><path d="m0 0-15.119-21.816" clip-path="url(#ah)" style="fill:none;stroke:#0e0f0f;stroke-width:.75;stroke-linecap:butt;stroke-linejoin:miter;stroke-miterlimit:10;stroke-dasharray:none;stroke-opacity:1" transform="matrix(.9646 0 0 -.9646 148.791 211.005)"/><path d="M0 0c-1.863-1.3-4.476-2.704-6.583-3.237l3.666-.972L-.72-7.3C-.961-5.14-.564-2.2 0 0" clip-path="url(#ai)" style="fill:#0e0f0f;fill-opacity:1;fill-rule:nonzero;stroke:none" transform="matrix(.9646 0 0 -.9646 151.278 207.416)"/><path d="M0 0c0-7.602-6.162-13.764-13.764-13.764-7.602 0-13.765 6.162-13.765 13.764 0 7.602 6.163 13.764 13.765 13.764S0 7.602 0 0" clip-path="url(#aj)" style="fill:#89bed4;fill-opacity:1;fill-rule:nonzero;stroke:none" transform="matrix(.9646 0 0 -.9646 134.208 232.428)"/><path d="M0 0c0-7.602-6.162-13.764-13.764-13.764-7.602 0-13.765 6.162-13.765 13.764 0 7.602 6.163 13.764 13.765 13.764S0 7.602 0 0Z" clip-path="url(#ak)" style="fill:none;stroke:#0e0f0f;stroke-width:.5;stroke-linecap:butt;stroke-linejoin:miter;stroke-miterlimit:10;stroke-dasharray:none;stroke-opacity:1" transform="matrix(.9646 0 0 -.9646 134.208 232.428)"/><path d="M0 0c0-7.602-6.163-13.764-13.764-13.764-7.602 0-13.765 6.162-13.765 13.764 0 7.602 6.163 13.764 13.765 13.764C-6.163 13.764 0 7.602 0 0" clip-path="url(#al)" style="fill:#eb5745;fill-opacity:1;fill-rule:nonzero;stroke:none" transform="matrix(.9646 0 0 -.9646 388.368 232.428)"/><path d="M0 0c0-7.602-6.163-13.764-13.764-13.764-7.602 0-13.765 6.162-13.765 13.764 0 7.602 6.163 13.764 13.765 13.764C-6.163 13.764 0 7.602 0 0Z" clip-path="url(#am)" style="fill:none;stroke:#0e0f0f;stroke-width:.5;stroke-linecap:butt;stroke-linejoin:miter;stroke-miterlimit:10;stroke-dasharray:none;stroke-opacity:1" transform="matrix(.9646 0 0 -.9646 388.368 232.428)"/><path d="M0 0h23.596" clip-path="url(#an)" style="fill:#0e0f0f;fill-opacity:1;fill-rule:nonzero;stroke:none" transform="matrix(.9646 0 0 -.9646 387.989 232.807)"/><path d="M0 0h19.07" clip-path="url(#ao)" style="fill:none;stroke:#0e0f0f;stroke-width:.75;stroke-linecap:butt;stroke-linejoin:miter;stroke-miterlimit:10;stroke-dasharray:none;stroke-opacity:1" transform="matrix(.9646 0 0 -.9646 387.989 232.807)"/><path d="M0 0c-2.13-.79-4.772-2.139-6.411-3.567L-5.12 0l-1.291 3.566C-4.772 2.138-2.13.79 0 0" clip-path="url(#ap)" style="fill:#0e0f0f;fill-opacity:1;fill-rule:nonzero;stroke:none" transform="matrix(.9646 0 0 -.9646 410.75 232.807)"/><path d="M0 0c0-7.602-6.163-13.764-13.764-13.764-7.602 0-13.765 6.162-13.765 13.764 0 7.602 6.163 13.764 13.765 13.764C-6.163 13.764 0 7.602 0 0" clip-path="url(#aq)" style="fill:#eb5745;fill-opacity:1;fill-rule:nonzero;stroke:none" transform="matrix(.9646 0 0 -.9646 436.924 232.428)"/><path d="M0 0c0-7.602-6.163-13.764-13.764-13.764-7.602 0-13.765 6.162-13.765 13.764 0 7.602 6.163 13.764 13.765 13.764C-6.163 13.764 0 7.602 0 0Z" clip-path="url(#ar)" style="fill:none;stroke:#0e0f0f;stroke-width:.5;stroke-linecap:butt;stroke-linejoin:miter;stroke-miterlimit:10;stroke-dasharray:none;stroke-opacity:1" transform="matrix(.9646 0 0 -.9646 436.924 232.428)"/><path d="M0 0c0-7.602-6.163-13.764-13.764-13.764-7.602 0-13.765 6.162-13.765 13.764 0 7.602 6.163 13.764 13.765 13.764C-6.163 13.764 0 7.602 0 0" clip-path="url(#as)" style="fill:#f69756;fill-opacity:1;fill-rule:nonzero;stroke:none" transform="matrix(.9646 0 0 -.9646 261.288 251.742)"/><path d="M0 0c0-7.602-6.163-13.764-13.764-13.764-7.602 0-13.765 6.162-13.765 13.764 0 7.602 6.163 13.764 13.765 13.764C-6.163 13.764 0 7.602 0 0Z" clip-path="url(#at)" style="fill:none;stroke:#0e0f0f;stroke-width:.5;stroke-linecap:butt;stroke-linejoin:miter;stroke-miterlimit:10;stroke-dasharray:none;stroke-opacity:1" transform="matrix(.9646 0 0 -.9646 261.288 251.742)"/><path d="m0 0 16.926-25.227" clip-path="url(#au)" style="fill:#fff;fill-opacity:1;fill-rule:nonzero;stroke:none" transform="matrix(.9646 0 0 -.9646 345.123 207.702)"/><path d="m0 0 14.404-21.468" clip-path="url(#av)" style="fill:none;stroke:#0e0f0f;stroke-width:.75;stroke-linecap:butt;stroke-linejoin:miter;stroke-miterlimit:10;stroke-dasharray:none;stroke-opacity:1" transform="matrix(.9646 0 0 -.9646 345.123 207.702)"/><path d="M0 0c-1.843 1.328-4.435 2.772-6.534 3.336l3.681.916L-.61 7.31C-.884 5.154-.531 2.209 0 0" clip-path="url(#aw)" style="fill:#0e0f0f;fill-opacity:1;fill-rule:nonzero;stroke:none" transform="matrix(.9646 0 0 -.9646 361.45 232.036)"/><path d="M0 0c.264.002.529.002.796 0 9.155-.072 15.987-2.662 18.299-3.489 26.033-9.308 38.858-14.369 51.714-15.349 2.624-.2 8.873-.54 15.912-.698 4.614-.103 8.726-.11 12.185-.074" clip-path="url(#ax)" style="fill:none;stroke:#0e0f0f;stroke-width:.75;stroke-linecap:butt;stroke-linejoin:miter;stroke-miterlimit:10;stroke-dasharray:none;stroke-opacity:1" transform="matrix(.9646 0 0 -.9646 134.966 232.807)"/><path d="M0 0c-2.13-.79-4.772-2.139-6.411-3.567L-5.12 0l-1.291 3.566C-4.772 2.138-2.13.79 0 0" clip-path="url(#ay)" style="fill:#0e0f0f;fill-opacity:1;fill-rule:nonzero;stroke:none" transform="matrix(.9646 0 0 -.9646 234.734 251.651)"/><path d="M0 0c.262-.002.525-.002.79 0 9.085.072 15.866 2.662 18.159 3.489 25.836 9.308 38.563 14.369 51.322 15.349 2.604.2 8.805.54 15.791.698 4.563.103 8.632.11 12.057.075" clip-path="url(#az)" style="fill:none;stroke:#0e0f0f;stroke-width:.75;stroke-linecap:butt;stroke-linejoin:miter;stroke-miterlimit:10;stroke-dasharray:none;stroke-opacity:1" transform="matrix(.9646 0 0 -.9646 261.288 251.74)"/><path d="M0 0c-2.13-.79-4.772-2.139-6.411-3.567L-5.12 0l-1.291 3.566C-4.772 2.138-2.13.79 0 0" clip-path="url(#aA)" style="fill:#0e0f0f;fill-opacity:1;fill-rule:nonzero;stroke:none" transform="matrix(.9646 0 0 -.9646 360.297 232.896)"/><text xml:space="preserve" x="227.297" y="-515.792" style="font-style:italic;font-variant:normal;font-weight:400;font-stretch:normal;font-size:6.82821px;font-family:&quot;Times New Roman&quot;;-inkscape-font-specification:TimesNewRomanPS-ItalicMT;writing-mode:lr-tb;fill:#0e0f0f;fill-opacity:1;fill-rule:nonzero;stroke:none;stroke-width:.72345" transform="matrix(1.33333 0 0 1.33333 -184.477 922.537)"><tspan x="227.297" y="-515.792" style="stroke-width:.72345">v</tspan><tspan x="321.001" y="-501.207" style="stroke-width:.72345">W</tspan></text><text xml:space="preserve" x="416.38" y="-514.476" style="font-variant:normal;font-weight:400;font-stretch:normal;font-size:9.67325px;font-family:&quot;Times New Roman&quot;;-inkscape-font-specification:TimesNewRomanPSMT;writing-mode:lr-tb;fill:#0e0f0f;fill-opacity:1;fill-rule:nonzero;stroke:none;stroke-width:.72345" transform="matrix(1.33333 0 0 1.33333 -184.477 922.537)"><tspan x="416.38" y="-514.476" style="stroke-width:.72345">+</tspan></text><text xml:space="preserve" x="453.36" y="-515.047" style="font-variant:normal;font-weight:400;font-stretch:normal;font-size:9.67325px;font-family:&quot;Times New Roman&quot;;-inkscape-font-specification:TimesNewRomanPSMT;writing-mode:lr-tb;fill:#0e0f0f;fill-opacity:1;fill-rule:nonzero;stroke:none;stroke-width:.72345" transform="matrix(1.33333 0 0 1.33333 -184.477 922.537)"><tspan x="453.36" y="-515.047" style="stroke-width:.72345">σ</tspan></text><text xml:space="preserve" x="159.867" y="-519.977" style="font-variant:normal;font-weight:400;font-stretch:normal;font-size:6.82821px;font-family:&quot;Times New Roman&quot;;-inkscape-font-specification:TimesNewRomanPSMT;writing-mode:lr-tb;fill:#231f20;fill-opacity:1;fill-rule:nonzero;stroke:none;stroke-width:.72345" transform="matrix(1.33333 0 0 1.33333 -184.477 922.537)"><tspan x="159.86703 164.797 169.72696 174.65694 176.36398 178.26222 181.29396 184.70805 187.73979" y="-519.977" style="stroke-width:.72345">GNO layer</tspan><tspan x="405.96255 410.89252 413.92426 417.33835 419.61215 422.64389 424.54211 426.24918 431.17914 434.59326 437.62497 439.89877 442.93048 444.82874 448.24283 450.51663 452.22369 456.39572 459.42746 462.84155 465.87329" y="-476.897" style="stroke-width:.72345">Neural Operator Layer</tspan></text><path d="M468.844 99.86H109.878v79.753h358.966z" clip-path="url(#aB)" style="fill:none;stroke:#0e0f0f;stroke-width:.75;stroke-linecap:butt;stroke-linejoin:miter;stroke-miterlimit:10;stroke-dasharray:none;stroke-opacity:1" transform="matrix(.9646 0 0 -.9646 -6.878 448.596)"/><path d="M364.875 146.407H164.309v29.746h200.566z" clip-path="url(#aC)" style="fill:#f4f7aa;fill-opacity:1;fill-rule:nonzero;stroke:#0e0f0f;stroke-width:.5;stroke-linecap:butt;stroke-linejoin:miter;stroke-miterlimit:10;stroke-dasharray:none;stroke-opacity:1" transform="matrix(.9646 0 0 -.9646 -6.878 448.596)"/><path d="m0 0-17.697-25.536" clip-path="url(#aD)" style="fill:#fff;fill-opacity:1;fill-rule:nonzero;stroke:none" transform="matrix(.9646 0 0 -.9646 151.236 292.74)"/><path d="m0 0-15.119-21.816" clip-path="url(#aE)" style="fill:none;stroke:#0e0f0f;stroke-width:.75;stroke-linecap:butt;stroke-linejoin:miter;stroke-miterlimit:10;stroke-dasharray:none;stroke-opacity:1" transform="matrix(.9646 0 0 -.9646 148.749 296.328)"/><path d="M0 0c-1.863-1.3-4.476-2.704-6.583-3.237l3.666-.972L-.72-7.3C-.961-5.14-.564-2.2 0 0" clip-path="url(#aF)" style="fill:#0e0f0f;fill-opacity:1;fill-rule:nonzero;stroke:none" transform="matrix(.9646 0 0 -.9646 151.236 292.74)"/><path d="M0 0c0-7.602-6.162-13.764-13.764-13.764-7.602 0-13.765 6.162-13.765 13.764 0 7.602 6.163 13.764 13.765 13.764S0 7.602 0 0" clip-path="url(#aG)" style="fill:#89bed4;fill-opacity:1;fill-rule:nonzero;stroke:none" transform="matrix(.9646 0 0 -.9646 134.165 317.75)"/><path d="M0 0c0-7.602-6.162-13.764-13.764-13.764-7.602 0-13.765 6.162-13.765 13.764 0 7.602 6.163 13.764 13.765 13.764S0 7.602 0 0Z" clip-path="url(#aH)" style="fill:none;stroke:#0e0f0f;stroke-width:.5;stroke-linecap:butt;stroke-linejoin:miter;stroke-miterlimit:10;stroke-dasharray:none;stroke-opacity:1" transform="matrix(.9646 0 0 -.9646 134.165 317.75)"/><path d="M0 0c0-7.602-6.162-13.764-13.764-13.764-7.602 0-13.765 6.162-13.765 13.764 0 7.602 6.163 13.764 13.765 13.764S0 7.602 0 0" clip-path="url(#aI)" style="fill:#eb5745;fill-opacity:1;fill-rule:nonzero;stroke:none" transform="matrix(.9646 0 0 -.9646 388.326 317.75)"/><path d="M0 0c0-7.602-6.162-13.764-13.764-13.764-7.602 0-13.765 6.162-13.765 13.764 0 7.602 6.163 13.764 13.765 13.764S0 7.602 0 0Z" clip-path="url(#aJ)" style="fill:none;stroke:#0e0f0f;stroke-width:.5;stroke-linecap:butt;stroke-linejoin:miter;stroke-miterlimit:10;stroke-dasharray:none;stroke-opacity:1" transform="matrix(.9646 0 0 -.9646 388.326 317.75)"/><path d="M0 0h23.596" clip-path="url(#aK)" style="fill:#0e0f0f;fill-opacity:1;fill-rule:nonzero;stroke:none" transform="matrix(.9646 0 0 -.9646 387.946 318.13)"/><path d="M0 0h19.07" clip-path="url(#aL)" style="fill:none;stroke:#0e0f0f;stroke-width:.75;stroke-linecap:butt;stroke-linejoin:miter;stroke-miterlimit:10;stroke-dasharray:none;stroke-opacity:1" transform="matrix(.9646 0 0 -.9646 387.946 318.13)"/><path d="M0 0c-2.13-.79-4.772-2.139-6.411-3.567L-5.12 0l-1.291 3.566C-4.772 2.138-2.13.79 0 0" clip-path="url(#aM)" style="fill:#0e0f0f;fill-opacity:1;fill-rule:nonzero;stroke:none" transform="matrix(.9646 0 0 -.9646 410.707 318.13)"/><path d="M0 0c0-7.602-6.162-13.764-13.764-13.764-7.602 0-13.765 6.162-13.765 13.764 0 7.602 6.163 13.764 13.765 13.764S0 7.602 0 0" clip-path="url(#aN)" style="fill:#eb5745;fill-opacity:1;fill-rule:nonzero;stroke:none" transform="matrix(.9646 0 0 -.9646 436.882 317.75)"/><path d="M0 0c0-7.602-6.162-13.764-13.764-13.764-7.602 0-13.765 6.162-13.765 13.764 0 7.602 6.163 13.764 13.765 13.764S0 7.602 0 0Z" clip-path="url(#aO)" style="fill:none;stroke:#0e0f0f;stroke-width:.5;stroke-linecap:butt;stroke-linejoin:miter;stroke-miterlimit:10;stroke-dasharray:none;stroke-opacity:1" transform="matrix(.9646 0 0 -.9646 436.882 317.75)"/><path d="M0 0c0-7.602-6.162-13.764-13.764-13.764-7.602 0-13.765 6.162-13.765 13.764 0 7.602 6.163 13.764 13.765 13.764S0 7.602 0 0" clip-path="url(#aP)" style="fill:#f69756;fill-opacity:1;fill-rule:nonzero;stroke:none" transform="matrix(.9646 0 0 -.9646 261.245 337.065)"/><path d="M0 0c0-7.602-6.162-13.764-13.764-13.764-7.602 0-13.765 6.162-13.765 13.764 0 7.602 6.163 13.764 13.765 13.764S0 7.602 0 0Z" clip-path="url(#aQ)" style="fill:none;stroke:#0e0f0f;stroke-width:.5;stroke-linecap:butt;stroke-linejoin:miter;stroke-miterlimit:10;stroke-dasharray:none;stroke-opacity:1" transform="matrix(.9646 0 0 -.9646 261.245 337.065)"/><path d="m0 0 16.926-25.227" clip-path="url(#aR)" style="fill:#fff;fill-opacity:1;fill-rule:nonzero;stroke:none" transform="matrix(.9646 0 0 -.9646 345.08 293.025)"/><path d="m0 0 14.404-21.469" clip-path="url(#aS)" style="fill:none;stroke:#0e0f0f;stroke-width:.75;stroke-linecap:butt;stroke-linejoin:miter;stroke-miterlimit:10;stroke-dasharray:none;stroke-opacity:1" transform="matrix(.9646 0 0 -.9646 345.08 293.025)"/><path d="M0 0c-1.843 1.328-4.435 2.772-6.534 3.336l3.681.916L-.61 7.31C-.884 5.154-.531 2.209 0 0" clip-path="url(#aT)" style="fill:#0e0f0f;fill-opacity:1;fill-rule:nonzero;stroke:none" transform="matrix(.9646 0 0 -.9646 361.407 317.36)"/><path d="M0 0c.264.002.529.002.796 0 9.155-.072 15.987-2.662 18.299-3.489 26.033-9.308 38.858-14.369 51.714-15.349 2.624-.2 8.873-.54 15.912-.698 4.614-.103 8.726-.11 12.185-.074" clip-path="url(#aU)" style="fill:none;stroke:#0e0f0f;stroke-width:.75;stroke-linecap:butt;stroke-linejoin:miter;stroke-miterlimit:10;stroke-dasharray:none;stroke-opacity:1" transform="matrix(.9646 0 0 -.9646 134.924 318.13)"/><path d="M0 0c-2.13-.79-4.772-2.139-6.411-3.567L-5.12 0l-1.291 3.566C-4.772 2.138-2.13.79 0 0" clip-path="url(#aV)" style="fill:#0e0f0f;fill-opacity:1;fill-rule:nonzero;stroke:none" transform="matrix(.9646 0 0 -.9646 234.691 336.974)"/><path d="M0 0c.262-.002.525-.002.79 0 9.085.072 15.866 2.662 18.159 3.489 25.836 9.308 38.563 14.369 51.322 15.349 2.604.2 8.805.54 15.791.698 4.563.103 8.632.11 12.057.075" clip-path="url(#aW)" style="fill:none;stroke:#0e0f0f;stroke-width:.75;stroke-linecap:butt;stroke-linejoin:miter;stroke-miterlimit:10;stroke-dasharray:none;stroke-opacity:1" transform="matrix(.9646 0 0 -.9646 261.245 337.064)"/><path d="M0 0c-2.13-.79-4.772-2.139-6.411-3.567L-5.12 0l-1.291 3.566C-4.772 2.138-2.13.79 0 0" clip-path="url(#aX)" style="fill:#0e0f0f;fill-opacity:1;fill-rule:nonzero;stroke:none" transform="matrix(.9646 0 0 -.9646 360.254 318.22)"/><text xml:space="preserve" x="227.265" y="-451.799" style="font-style:italic;font-variant:normal;font-weight:400;font-stretch:normal;font-size:6.82821px;font-family:&quot;Times New Roman&quot;;-inkscape-font-specification:TimesNewRomanPS-ItalicMT;writing-mode:lr-tb;fill:#0e0f0f;fill-opacity:1;fill-rule:nonzero;stroke:none;stroke-width:.72345" transform="matrix(1.33333 0 0 1.33333 -184.477 922.537)"><tspan x="227.265" y="-451.799" style="stroke-width:.72345">v</tspan><tspan x="320.969" y="-437.214" style="stroke-width:.72345">W</tspan></text><text xml:space="preserve" x="416.347" y="-450.484" style="font-variant:normal;font-weight:400;font-stretch:normal;font-size:9.67325px;font-family:&quot;Times New Roman&quot;;-inkscape-font-specification:TimesNewRomanPSMT;writing-mode:lr-tb;fill:#0e0f0f;fill-opacity:1;fill-rule:nonzero;stroke:none;stroke-width:.72345" transform="matrix(1.33333 0 0 1.33333 -184.477 922.537)"><tspan x="416.347" y="-450.484" style="stroke-width:.72345">+</tspan></text><text xml:space="preserve" x="453.328" y="-451.054" style="font-variant:normal;font-weight:400;font-stretch:normal;font-size:9.67325px;font-family:&quot;Times New Roman&quot;;-inkscape-font-specification:TimesNewRomanPSMT;writing-mode:lr-tb;fill:#0e0f0f;fill-opacity:1;fill-rule:nonzero;stroke:none;stroke-width:.72345" transform="matrix(1.33333 0 0 1.33333 -184.477 922.537)"><tspan x="453.328" y="-451.054" style="stroke-width:.72345">σ</tspan></text><text xml:space="preserve" x="344.826" y="-470.226" style="font-style:italic;font-variant:normal;font-weight:400;font-stretch:normal;font-size:6.82821px;font-family:&quot;Times New Roman&quot;;-inkscape-font-specification:TimesNewRomanPS-ItalicMT;writing-mode:lr-tb;fill:#0e0f0f;fill-opacity:1;fill-rule:nonzero;stroke:none;stroke-width:.72345" transform="matrix(1.33333 0 0 1.33333 -184.477 922.537)"><tspan x="344.82614 349.43518 351.14224 354.55634 356.83014 359.86185 362.13565" y="-470.226" style="stroke-width:.72345">+ b(x) </tspan></text><text xml:space="preserve" x="159.836" y="-455.982" style="font-variant:normal;font-weight:400;font-stretch:normal;font-size:6.82821px;font-family:&quot;Times New Roman&quot;;-inkscape-font-specification:TimesNewRomanPSMT;writing-mode:lr-tb;fill:#231f20;fill-opacity:1;fill-rule:nonzero;stroke:none;stroke-width:.72345" transform="matrix(1.33333 0 0 1.33333 -184.477 922.537)"><tspan x="159.83626 164.0083 168.93826 173.86823 175.57529 177.47353 180.50525 183.91936 186.95108" y="-455.982" style="stroke-width:.72345">LNO layer</tspan><tspan x="406.06836 410.99832 414.03006 417.44415 419.71796 422.74969 424.64792 426.35498 431.28494 434.69904 437.73077 440.00458 443.03629 444.93454 448.34863 450.62244 452.3295 456.50153 459.53323 462.94736 465.97906" y="-412.261" style="stroke-width:.72345">Neural Operator Layer</tspan></text><path d="M468.986 10.522H110.02v79.753h358.966z" clip-path="url(#aY)" style="fill:none;stroke:#0e0f0f;stroke-width:.75;stroke-linecap:butt;stroke-linejoin:miter;stroke-miterlimit:10;stroke-dasharray:none;stroke-opacity:1" transform="matrix(.9646 0 0 -.9646 -6.878 448.596)"/><path d="M365.017 57.069H164.451v29.746h200.566z" clip-path="url(#aZ)" style="fill:#f4f7aa;fill-opacity:1;fill-rule:nonzero;stroke:#0e0f0f;stroke-width:.5;stroke-linecap:butt;stroke-linejoin:miter;stroke-miterlimit:10;stroke-dasharray:none;stroke-opacity:1" transform="matrix(.9646 0 0 -.9646 -6.878 448.596)"/><path d="m0 0-17.697-25.536" clip-path="url(#ba)" style="fill:#fff;fill-opacity:1;fill-rule:nonzero;stroke:none" transform="matrix(.9646 0 0 -.9646 151.372 378.914)"/><path d="m0 0-15.119-21.816" clip-path="url(#bb)" style="fill:none;stroke:#0e0f0f;stroke-width:.75;stroke-linecap:butt;stroke-linejoin:miter;stroke-miterlimit:10;stroke-dasharray:none;stroke-opacity:1" transform="matrix(.9646 0 0 -.9646 148.885 382.503)"/><path d="M0 0c-1.863-1.3-4.476-2.704-6.583-3.237l3.666-.971L-.72-7.3C-.961-5.14-.564-2.2 0 0" clip-path="url(#bc)" style="fill:#0e0f0f;fill-opacity:1;fill-rule:nonzero;stroke:none" transform="matrix(.9646 0 0 -.9646 151.372 378.914)"/><path d="M0 0c0-7.602-6.162-13.764-13.764-13.764-7.602 0-13.765 6.162-13.765 13.764 0 7.602 6.163 13.764 13.765 13.764S0 7.602 0 0" clip-path="url(#bd)" style="fill:#89bed4;fill-opacity:1;fill-rule:nonzero;stroke:none" transform="matrix(.9646 0 0 -.9646 134.302 403.926)"/><path d="M0 0c0-7.602-6.162-13.764-13.764-13.764-7.602 0-13.765 6.162-13.765 13.764 0 7.602 6.163 13.764 13.765 13.764S0 7.602 0 0Z" clip-path="url(#be)" style="fill:none;stroke:#0e0f0f;stroke-width:.5;stroke-linecap:butt;stroke-linejoin:miter;stroke-miterlimit:10;stroke-dasharray:none;stroke-opacity:1" transform="matrix(.9646 0 0 -.9646 134.302 403.926)"/><path d="M0 0c0-7.602-6.162-13.764-13.764-13.764-7.602 0-13.765 6.162-13.765 13.764 0 7.602 6.163 13.764 13.765 13.764S0 7.602 0 0" clip-path="url(#bf)" style="fill:#eb5745;fill-opacity:1;fill-rule:nonzero;stroke:none" transform="matrix(.9646 0 0 -.9646 388.462 403.926)"/><path d="M0 0c0-7.602-6.162-13.764-13.764-13.764-7.602 0-13.765 6.162-13.765 13.764 0 7.602 6.163 13.764 13.765 13.764S0 7.602 0 0Z" clip-path="url(#bg)" style="fill:none;stroke:#0e0f0f;stroke-width:.5;stroke-linecap:butt;stroke-linejoin:miter;stroke-miterlimit:10;stroke-dasharray:none;stroke-opacity:1" transform="matrix(.9646 0 0 -.9646 388.462 403.926)"/><path d="M0 0h23.596" clip-path="url(#bh)" style="fill:#0e0f0f;fill-opacity:1;fill-rule:nonzero;stroke:none" transform="matrix(.9646 0 0 -.9646 388.083 404.305)"/><path d="M0 0h19.07" clip-path="url(#bi)" style="fill:none;stroke:#0e0f0f;stroke-width:.75;stroke-linecap:butt;stroke-linejoin:miter;stroke-miterlimit:10;stroke-dasharray:none;stroke-opacity:1" transform="matrix(.9646 0 0 -.9646 388.083 404.305)"/><path d="M0 0c-2.13-.79-4.772-2.139-6.411-3.567L-5.12 0l-1.291 3.566C-4.772 2.138-2.13.79 0 0" clip-path="url(#bj)" style="fill:#0e0f0f;fill-opacity:1;fill-rule:nonzero;stroke:none" transform="matrix(.9646 0 0 -.9646 410.843 404.305)"/><path d="M0 0c0-7.602-6.162-13.764-13.764-13.764-7.602 0-13.765 6.162-13.765 13.764 0 7.602 6.163 13.764 13.765 13.764S0 7.602 0 0" clip-path="url(#bk)" style="fill:#eb5745;fill-opacity:1;fill-rule:nonzero;stroke:none" transform="matrix(.9646 0 0 -.9646 437.018 403.926)"/><path d="M0 0c0-7.602-6.162-13.764-13.764-13.764-7.602 0-13.765 6.162-13.765 13.764 0 7.602 6.163 13.764 13.765 13.764S0 7.602 0 0Z" clip-path="url(#bl)" style="fill:none;stroke:#0e0f0f;stroke-width:.5;stroke-linecap:butt;stroke-linejoin:miter;stroke-miterlimit:10;stroke-dasharray:none;stroke-opacity:1" transform="matrix(.9646 0 0 -.9646 437.018 403.926)"/><path d="M0 0c0-7.602-6.162-13.764-13.764-13.764-7.602 0-13.765 6.162-13.765 13.764 0 7.602 6.163 13.764 13.765 13.764S0 7.602 0 0" clip-path="url(#bm)" style="fill:#f69756;fill-opacity:1;fill-rule:nonzero;stroke:none" transform="matrix(.9646 0 0 -.9646 261.382 423.24)"/><path d="M0 0c0-7.602-6.162-13.764-13.764-13.764-7.602 0-13.765 6.162-13.765 13.764 0 7.602 6.163 13.764 13.765 13.764S0 7.602 0 0Z" clip-path="url(#bn)" style="fill:none;stroke:#0e0f0f;stroke-width:.5;stroke-linecap:butt;stroke-linejoin:miter;stroke-miterlimit:10;stroke-dasharray:none;stroke-opacity:1" transform="matrix(.9646 0 0 -.9646 261.382 423.24)"/><path d="m0 0 16.926-25.227" clip-path="url(#bo)" style="fill:#fff;fill-opacity:1;fill-rule:nonzero;stroke:none" transform="matrix(.9646 0 0 -.9646 345.217 379.2)"/><path d="m0 0 14.404-21.468" clip-path="url(#bp)" style="fill:none;stroke:#0e0f0f;stroke-width:.75;stroke-linecap:butt;stroke-linejoin:miter;stroke-miterlimit:10;stroke-dasharray:none;stroke-opacity:1" transform="matrix(.9646 0 0 -.9646 345.217 379.2)"/><path d="M0 0c-1.843 1.328-4.435 2.772-6.534 3.336l3.681.916L-.61 7.31C-.884 5.154-.531 2.209 0 0" clip-path="url(#bq)" style="fill:#0e0f0f;fill-opacity:1;fill-rule:nonzero;stroke:none" transform="matrix(.9646 0 0 -.9646 361.544 403.534)"/><path d="M0 0c.264.002.529.002.796 0 9.155-.072 15.987-2.662 18.299-3.489 26.033-9.308 38.858-14.369 51.714-15.349 2.624-.2 8.873-.54 15.912-.698 4.614-.103 8.726-.11 12.185-.074" clip-path="url(#br)" style="fill:none;stroke:#0e0f0f;stroke-width:.75;stroke-linecap:butt;stroke-linejoin:miter;stroke-miterlimit:10;stroke-dasharray:none;stroke-opacity:1" transform="matrix(.9646 0 0 -.9646 135.06 404.305)"/><path d="M0 0c-2.13-.79-4.772-2.139-6.411-3.567L-5.12 0l-1.291 3.566C-4.772 2.138-2.13.79 0 0" clip-path="url(#bs)" style="fill:#0e0f0f;fill-opacity:1;fill-rule:nonzero;stroke:none" transform="matrix(.9646 0 0 -.9646 234.828 423.15)"/><path d="M0 0c.262-.002.525-.002.79 0 9.085.072 15.866 2.662 18.159 3.489 25.836 9.308 38.563 14.369 51.322 15.349 2.604.2 8.805.54 15.791.698 4.563.103 8.632.11 12.057.075" clip-path="url(#bt)" style="fill:none;stroke:#0e0f0f;stroke-width:.75;stroke-linecap:butt;stroke-linejoin:miter;stroke-miterlimit:10;stroke-dasharray:none;stroke-opacity:1" transform="matrix(.9646 0 0 -.9646 261.382 423.238)"/><path d="M0 0c-2.13-.79-4.772-2.139-6.411-3.567L-5.12 0l-1.291 3.566C-4.772 2.138-2.13.79 0 0" clip-path="url(#bu)" style="fill:#0e0f0f;fill-opacity:1;fill-rule:nonzero;stroke:none" transform="matrix(.9646 0 0 -.9646 360.39 404.394)"/><text xml:space="preserve" x="227.368" y="-387.168" style="font-style:italic;font-variant:normal;font-weight:400;font-stretch:normal;font-size:6.82821px;font-family:&quot;Times New Roman&quot;;-inkscape-font-specification:TimesNewRomanPS-ItalicMT;writing-mode:lr-tb;fill:#0e0f0f;fill-opacity:1;fill-rule:nonzero;stroke:none;stroke-width:.72345" transform="matrix(1.33333 0 0 1.33333 -184.477 922.537)"><tspan x="227.368" y="-387.168" style="stroke-width:.72345">v</tspan><tspan x="321.071" y="-372.583" style="stroke-width:.72345">W</tspan></text><text xml:space="preserve" x="416.45" y="-385.853" style="font-variant:normal;font-weight:400;font-stretch:normal;font-size:9.67325px;font-family:&quot;Times New Roman&quot;;-inkscape-font-specification:TimesNewRomanPSMT;writing-mode:lr-tb;fill:#0e0f0f;fill-opacity:1;fill-rule:nonzero;stroke:none;stroke-width:.72345" transform="matrix(1.33333 0 0 1.33333 -184.477 922.537)"><tspan x="416.45" y="-385.853" style="stroke-width:.72345">+</tspan></text><text xml:space="preserve" x="453.431" y="-386.424" style="font-variant:normal;font-weight:400;font-stretch:normal;font-size:9.67325px;font-family:&quot;Times New Roman&quot;;-inkscape-font-specification:TimesNewRomanPSMT;writing-mode:lr-tb;fill:#0e0f0f;fill-opacity:1;fill-rule:nonzero;stroke:none;stroke-width:.72345" transform="matrix(1.33333 0 0 1.33333 -184.477 922.537)"><tspan x="453.431" y="-386.424" style="stroke-width:.72345">σ</tspan></text><text xml:space="preserve" x="159.937" y="-391.353" style="font-variant:normal;font-weight:400;font-stretch:normal;font-size:6.82821px;font-family:&quot;Times New Roman&quot;;-inkscape-font-specification:TimesNewRomanPSMT;writing-mode:lr-tb;fill:#231f20;fill-opacity:1;fill-rule:nonzero;stroke:none;stroke-width:.72345" transform="matrix(1.33333 0 0 1.33333 -184.477 922.537)"><tspan x="159.93735 163.73384 168.6638 173.59377 175.30083 177.19907 180.23079 183.6449 186.67662" y="-391.353" style="stroke-width:.72345">FNO layer</tspan></text><path d="m0 0-3.182-3.934c-.071-.09-.08-.108-.08-.144 0-.098.08-.098.242-.098h7.429l.771 2.231h-.224c-.224-.672-.824-1.219-1.586-1.479-.144-.044-.762-.26-2.079-.26h-3.809L.592.161c.062.081.08.108.08.144C.672.341.663.35.609.43l-2.912 3.997h3.549c1.021 0 3.083-.062 3.71-1.738h.224l-.771 2.097H-3.02c-.242 0-.251-.009-.251-.287z" clip-path="url(#bv)" style="fill:#110f0d;fill-opacity:1;fill-rule:nonzero;stroke:none" transform="matrix(.9646 0 0 -.9646 199.807 292.896)"/><path d="M0 0c.072.282.144.563.21.851.006.013.052.203.058.236.02.059.184.327.354.491.21.19.432.223.55.223.072 0 .19-.007.282-.085a.384.384 0 0 1-.321-.361c0-.144.111-.242.255-.242.177 0 .373.144.373.406 0 .236-.203.465-.576.465-.445 0-.746-.295-.884-.471-.131.471-.576.471-.641.471-.236 0-.4-.151-.505-.354a2.623 2.623 0 0 1-.222-.648c0-.059.046-.085.098-.085.085 0 .092.026.137.196.079.321.197.708.472.708.17 0 .209-.164.209-.308 0-.118-.032-.242-.085-.458A35.128 35.128 0 0 0-.373.504l-.242-.982a2.739 2.739 0 0 1-.066-.288c0-.151.124-.203.21-.203.229 0 .275.183.327.406z" clip-path="url(#bw)" style="fill:#110f0d;fill-opacity:1;fill-rule:nonzero;stroke:none" transform="matrix(.9646 0 0 -.9646 206.511 289.908)"/><path d="M0 0c-.098-.399-.419-.825-.818-.825a.712.712 0 0 0-.217.033c.203.098.23.275.23.334 0 .157-.118.242-.256.242a.377.377 0 0 1-.366-.38c0-.249.242-.412.615-.412.399 0 1.12.248 1.316 1.034l.589 2.344c.02.079.033.131.033.229 0 .361-.288.616-.668.616-.694 0-1.1-.917-1.1-1.002 0-.059.046-.085.099-.085.072 0 .078.02.124.118.196.452.53.786.858.786.137 0 .216-.092.216-.308 0-.092-.02-.183-.039-.275zm1.368 4.413a.25.25 0 0 1-.255.249c-.196 0-.367-.183-.367-.354a.25.25 0 0 1 .256-.248c.196 0 .366.183.366.353" clip-path="url(#bx)" style="fill:#110f0d;fill-opacity:1;fill-rule:nonzero;stroke:none" transform="matrix(.9646 0 0 -.9646 206.58 297.635)"/><path d="M0 0c.098 0 .255 0 .255.151 0 .15-.131.15-.229.15h-4.171c-.098 0-.229 0-.229-.15 0-.151.157-.151.255-.151Zm.026 1.388c.098 0 .229 0 .229.151 0 .15-.157.15-.255.15h-4.119c-.098 0-.255 0-.255-.15 0-.151.131-.151.229-.151z" clip-path="url(#by)" style="fill:#110f0d;fill-opacity:1;fill-rule:nonzero;stroke:none" transform="matrix(.9646 0 0 -.9646 212.962 296.555)"/><path d="M0 0c0 .177-.013.183-.19.183-.268-.262-.615-.419-1.237-.419v-.216c.176 0 .53 0 .91.177v-3.359c0-.242-.02-.321-.642-.321h-.229v-.216c.268.02.831.02 1.126.02.295 0 .864 0 1.133-.02v.216H.642c-.622 0-.642.079-.642.321Z" clip-path="url(#bz)" style="fill:#110f0d;fill-opacity:1;fill-rule:nonzero;stroke:none" transform="matrix(.9646 0 0 -.9646 215.573 293.296)"/><path d="M0 0c.045.099.045.117.045.161a.18.18 0 0 1-.179.18c-.081 0-.144-.045-.207-.207l-1.568-4.113c-.018-.054-.045-.108-.045-.162 0-.027 0-.044.045-.152l1.568-4.114c.036-.098.081-.215.207-.215a.18.18 0 0 1 .179.179c0 .027 0 .045-.045.144l-1.586 4.158z" clip-path="url(#bA)" style="fill:#110f0d;fill-opacity:1;fill-rule:nonzero;stroke:none" transform="matrix(.9646 0 0 -.9646 220.176 288.608)"/><path d="M0 0c.009.036.027.09.027.134 0 .09-.063.099-.108.099-.089 0-.098-.018-.134-.179L-1.703-5.87c-.681.08-1.022.412-1.022 1.003 0 .18 0 .413.484 1.667.036.108.099.26.099.44 0 .403-.287.735-.735.735-.851 0-1.183-1.3-1.183-1.381 0-.089.09-.089.108-.089.089 0 .098.018.143.161.242.851.6 1.111.905 1.111.072 0 .224 0 .224-.286 0-.233-.089-.458-.206-.771-.43-1.129-.43-1.363-.43-1.515 0-.851.699-1.219 1.559-1.273-.071-.322-.071-.34-.197-.815a27.356 27.356 0 0 1-.206-.852c0-.008 0-.089.108-.089.018 0 .062 0 .08.036.027.018.081.242.108.367l.34 1.336c.332 0 1.121 0 1.963.959.368.412.556.806.654 1.075.081.224.278 1.004.278 1.398 0 .502-.242.628-.394.628-.224 0-.448-.234-.448-.431 0-.116.054-.17.134-.242.099-.098.323-.331.323-.761 0-.574-.466-1.309-.78-1.632-.789-.797-1.362-.797-1.685-.797z" clip-path="url(#bB)" style="fill:#110f0d;fill-opacity:1;fill-rule:nonzero;stroke:none" transform="matrix(.9646 0 0 -.9646 224.87 288.989)"/><path d="M0 0c.052 0 .131 0 .131.079 0 .026-.007.032-.092.117-.897.845-1.119 2.063-1.119 3.078 0 1.886.779 2.77 1.113 3.071.091.085.098.092.098.124 0 .033-.026.079-.092.079-.104 0-.432-.334-.484-.393-.878-.917-1.061-2.095-1.061-2.881C-1.506 1.807-.891.629 0 0" clip-path="url(#bC)" style="fill:#110f0d;fill-opacity:1;fill-rule:nonzero;stroke:none" transform="matrix(.9646 0 0 -.9646 228.747 293.205)"/><path d="M0 0c-.098-.399-.419-.825-.818-.825a.712.712 0 0 0-.217.033c.203.098.23.275.23.334 0 .157-.118.242-.256.242a.377.377 0 0 1-.366-.38c0-.249.242-.412.615-.412.399 0 1.12.248 1.316 1.034l.589 2.344c.02.079.033.131.033.23 0 .36-.288.615-.668.615-.694 0-1.1-.917-1.1-1.002 0-.059.046-.085.099-.085.072 0 .078.02.124.118.196.452.53.786.858.786.137 0 .216-.092.216-.308 0-.092-.02-.183-.04-.275zm1.368 4.413a.25.25 0 0 1-.255.249c-.196 0-.367-.183-.367-.354a.25.25 0 0 1 .256-.248c.196 0 .366.183.366.353" clip-path="url(#bD)" style="fill:#110f0d;fill-opacity:1;fill-rule:nonzero;stroke:none" transform="matrix(.9646 0 0 -.9646 230.542 291.942)"/><path d="M0 0c0 .622-.105 1.368-.511 2.141-.321.603-.916 1.133-1.034 1.133-.066 0-.085-.046-.085-.079 0-.026 0-.039.078-.118C-.635 2.207-.426 1.008-.426 0c0-1.879-.779-2.77-1.113-3.071-.085-.085-.091-.092-.091-.124 0-.033.019-.079.085-.079.104 0 .432.334.484.393C-.183-1.964 0-.786 0 0" clip-path="url(#bE)" style="fill:#110f0d;fill-opacity:1;fill-rule:nonzero;stroke:none" transform="matrix(.9646 0 0 -.9646 234.283 290.047)"/><path d="M0 0c0 .592-.224.941-.574.941a.462.462 0 0 1-.475-.475c0-.242.18-.475.475-.475A.47.47 0 0 1-.26.108c.027.017.036.026.045.026.009 0 .018-.009.018-.134 0-.663-.314-1.201-.61-1.497-.098-.098-.098-.116-.098-.143 0-.063.045-.099.089-.099.099 0 .816.69.816 1.739" clip-path="url(#bF)" style="fill:#110f0d;fill-opacity:1;fill-rule:nonzero;stroke:none" transform="matrix(.9646 0 0 -.9646 237.09 294.755)"/><path d="M0 0c0 .009 0 .099-.117.099-.206 0-.86-.072-1.093-.09-.072-.009-.17-.018-.17-.179 0-.108.08-.108.215-.108.43 0 .448-.063.448-.152 0-.063-.108-.484-.17-.726l-.547-2.196a7.5 7.5 0 0 1-.099-.403c0-.099.09-.108.144-.108h.125c.628.108 1.605.457 2.528 1.318C2.447-1.443 2.689-.224 2.689-.143c0 .152-.108.242-.26.242-.072 0-.278-.036-.35-.296C1.506-2.232.143-3.235-.878-3.567z" clip-path="url(#bG)" style="fill:#110f0d;fill-opacity:1;fill-rule:nonzero;stroke:none" transform="matrix(.9646 0 0 -.9646 241.115 291.037)"/><path d="M0 0c.045.108.045.125.045.152 0 .027 0 .045-.045.153l-1.568 4.122c-.054.153-.108.207-.207.207a.18.18 0 0 1-.179-.18c0-.027 0-.045.045-.143L-.323.152l-1.586-4.14c-.045-.099-.045-.117-.045-.162a.18.18 0 0 1 .179-.179c.117 0 .153.09.189.179z" clip-path="url(#bH)" style="fill:#110f0d;fill-opacity:1;fill-rule:nonzero;stroke:none" transform="matrix(.9646 0 0 -.9646 246.36 292.75)"/><path d="M0 0c-.072 0-.09 0-.161.009-.108 0-.117.009-.117.036 0 .018.153.833.179.968C.179 2.16.878 3.02 1.676 3.02c.618 0 .86-.484.86-.914C2.536 1.093 1.38 0 0 0m-1.237-1.945c-.036-.116-.045-.134-.045-.179 0-.197.171-.251.26-.251.045 0 .242.027.332.233.027.072.072.367.314 1.64.08-.009.143-.018.295-.018 1.488 0 2.868 1.407 2.868 2.823 0 .699-.349 1.237-1.021 1.237-1.3 0-1.838-1.739-2.375-3.486-.968.179-1.47.681-1.47 1.326 0 .251.206 1.237.744 1.855.071.081.071.099.071.117 0 .036-.018.09-.107.09-.251 0-.941-1.3-.941-2.16 0-.843.591-1.497 1.55-1.721z" clip-path="url(#bI)" style="fill:#110f0d;fill-opacity:1;fill-rule:nonzero;stroke:none" transform="matrix(.9646 0 0 -.9646 250.024 294.357)"/><path d="M0 0c.052 0 .131 0 .131.079 0 .026-.007.032-.092.117-.897.845-1.119 2.063-1.119 3.078 0 1.886.779 2.77 1.113 3.071.091.085.098.092.098.124 0 .033-.026.079-.092.079-.104 0-.432-.334-.484-.393-.878-.917-1.061-2.095-1.061-2.881C-1.506 1.807-.891.629 0 0" clip-path="url(#bJ)" style="fill:#110f0d;fill-opacity:1;fill-rule:nonzero;stroke:none" transform="matrix(.9646 0 0 -.9646 255.12 293.205)"/><path d="M0 0c-.098-.399-.419-.825-.818-.825a.712.712 0 0 0-.217.033c.203.098.23.275.23.334 0 .157-.118.242-.256.242a.377.377 0 0 1-.366-.38c0-.249.242-.412.615-.412.399 0 1.12.248 1.316 1.034l.589 2.344c.02.079.033.131.033.23 0 .36-.288.615-.668.615-.694 0-1.1-.917-1.1-1.002 0-.059.046-.085.099-.085.072 0 .078.02.124.118.196.452.53.786.858.786.137 0 .216-.092.216-.308 0-.092-.02-.183-.04-.275zm1.368 4.413a.25.25 0 0 1-.255.249c-.196 0-.367-.183-.367-.354a.25.25 0 0 1 .256-.248c.196 0 .366.183.366.353" clip-path="url(#bK)" style="fill:#110f0d;fill-opacity:1;fill-rule:nonzero;stroke:none" transform="matrix(.9646 0 0 -.9646 256.915 291.942)"/><path d="M0 0c0 .622-.105 1.368-.511 2.141-.321.603-.916 1.133-1.034 1.133-.066 0-.085-.046-.085-.079 0-.026 0-.039.078-.118C-.635 2.207-.426 1.008-.426 0c0-1.879-.779-2.77-1.113-3.071-.085-.085-.091-.092-.091-.124 0-.033.019-.079.085-.079.104 0 .432.334.484.393C-.183-1.964 0-.786 0 0" clip-path="url(#bL)" style="fill:#110f0d;fill-opacity:1;fill-rule:nonzero;stroke:none" transform="matrix(.9646 0 0 -.9646 260.656 290.047)"/><path d="M0 0c0 .027 0 .045-.152.197-1.121 1.129-1.407 2.823-1.407 4.195 0 1.559.34 3.118 1.442 4.239.117.107.117.125.117.152 0 .063-.036.09-.09.09-.089 0-.896-.61-1.425-1.748-.457-.986-.564-1.981-.564-2.733 0-.699.098-1.784.591-2.797C-.95.493-.179-.09-.09-.09c.054 0 .09.027.09.09" clip-path="url(#bM)" style="fill:#110f0d;fill-opacity:1;fill-rule:nonzero;stroke:none" transform="matrix(.9646 0 0 -.9646 264.57 296.838)"/><path d="M0 0c.054.233.26 1.058.887 1.058.045 0 .26 0 .448-.117C1.084.896.905.672.905.457c0-.143.099-.314.341-.314a.5.5 0 0 1 .484.52c0 .466-.529.592-.834.592-.52 0-.833-.475-.941-.681-.224.591-.708.681-.968.681-.932 0-1.443-1.156-1.443-1.38 0-.09.09-.09.108-.09.072 0 .098.018.116.098.305.95.897 1.175 1.201 1.175.171 0 .484-.081.484-.601 0-.278-.152-.878-.484-2.133-.143-.556-.457-.932-.851-.932-.054 0-.26 0-.448.116.224.045.421.233.421.484 0 .242-.197.314-.332.314a.51.51 0 0 1-.493-.52c0-.412.449-.591.843-.591.591 0 .914.627.941.681a.99.99 0 0 1 .968-.681c.923 0 1.434 1.156 1.434 1.38 0 .09-.081.09-.108.09-.08 0-.098-.036-.116-.099C.932-2.393.323-2.608.036-2.608c-.35 0-.493.287-.493.591 0 .198.054.395.152.789z" clip-path="url(#bN)" style="fill:#110f0d;fill-opacity:1;fill-rule:nonzero;stroke:none" transform="matrix(.9646 0 0 -.9646 267.958 292.153)"/><path d="M0 0c0 .699-.099 1.784-.591 2.796C-1.129 3.899-1.9 4.481-1.99 4.481a.085.085 0 0 1-.089-.089c0-.027 0-.045.17-.207C-1.031 3.298-.52 1.873-.52 0c0-1.533-.331-3.11-1.443-4.239-.116-.108-.116-.126-.116-.153 0-.053.036-.089.089-.089.09 0 .897.609 1.425 1.747C-.108-1.748 0-.753 0 0" clip-path="url(#bO)" style="fill:#110f0d;fill-opacity:1;fill-rule:nonzero;stroke:none" transform="matrix(.9646 0 0 -.9646 272.51 292.602)"/><text xml:space="preserve" x="314.135" y="-534.691" style="font-style:italic;font-variant:normal;font-weight:400;font-stretch:normal;font-size:6.82821px;font-family:&quot;Times New Roman&quot;;-inkscape-font-specification:TimesNewRomanPS-ItalicMT;writing-mode:lr-tb;fill:#0e0f0f;fill-opacity:1;fill-rule:nonzero;stroke:none;stroke-width:.72345" transform="matrix(1.33333 0 0 1.33333 -184.477 922.537)"><tspan x="314.13535 317.16708 319.44089 322.4726 324.17966 327.2114" y="-534.691" style="stroke-width:.72345">k(x,y </tspan></text><text xml:space="preserve" x="328.918" y="-534.691" style="font-style:italic;font-variant:normal;font-weight:400;font-stretch:normal;font-size:6.82821px;font-family:&quot;Times New Roman&quot;;-inkscape-font-specification:TimesNewRomanPS-ItalicMT;writing-mode:lr-tb;fill:#0e0f0f;fill-opacity:1;fill-rule:nonzero;stroke:none;stroke-width:.72345" transform="matrix(1.33333 0 0 1.33333 -184.477 922.537)"><tspan x="328.918" y="-534.691" style="stroke-width:.72345">)</tspan></text><text xml:space="preserve" x="331.056" y="-534.691" style="font-style:italic;font-variant:normal;font-weight:400;font-stretch:normal;font-size:6.82821px;font-family:&quot;Times New Roman&quot;;-inkscape-font-specification:TimesNewRomanPS-ItalicMT;writing-mode:lr-tb;fill:#0e0f0f;fill-opacity:1;fill-rule:nonzero;stroke:none;stroke-width:.72345" transform="matrix(1.33333 0 0 1.33333 -184.477 922.537)"><tspan x="331.05566 334.0874 336.36118 339.39291 341.09998 343.37375 345.08081 349.68985 351.39691 354.811 357.08481 360.11655 362.39032" y="-534.691" style="stroke-width:.72345">v(y ) + b(x) </tspan></text><path d="m0 0-4.376-5.412c-.099-.123-.111-.148-.111-.197 0-.136.111-.136.333-.136H6.065l1.06 3.07h-.308C6.509-3.6 5.683-4.352 4.635-4.709c-.197-.062-1.048-.357-2.86-.357h-5.239L.814.222C.9.333.925.37.925.419c0 .049-.013.062-.087.173L-3.168 6.09h4.881c1.406 0 4.241-.087 5.104-2.392h.308l-1.06 2.885H-4.154c-.333 0-.345-.013-.345-.395z" clip-path="url(#bP)" style="fill:#110f0d;fill-opacity:1;fill-rule:nonzero;stroke:none" transform="matrix(.9646 0 0 -.9646 222.592 206.42)"/><text xml:space="preserve" x="289.626" y="-532.337" style="font-style:italic;font-variant:normal;font-weight:400;font-stretch:normal;font-size:5.32785px;font-family:&quot;Times New Roman&quot;;-inkscape-font-specification:TimesNewRomanPS-ItalicMT;writing-mode:lr-tb;fill:#0e0f0f;fill-opacity:1;fill-rule:nonzero;stroke:none;stroke-width:.72345" transform="matrix(1.33333 0 0 1.33333 -184.477 922.537)"><tspan x="289.62595 291.40015 293.76569 295.09766 297.1702" y="-532.337" style="stroke-width:.72345">(x,r)</tspan></text><path d="M0 0c0 .236-.017.244-.253.244-.358-.349-.821-.558-1.65-.558v-.288c.235 0 .707 0 1.213.235v-4.479c0-.323-.026-.428-.855-.428h-.306v-.288c.358.026 1.109.026 1.502.026s1.152 0 1.51-.026v.288H.856c-.83 0-.856.105-.856.428Z" clip-path="url(#bQ)" style="fill:#110f0d;fill-opacity:1;fill-rule:nonzero;stroke:none" transform="matrix(.9646 0 0 -.9646 205.738 198.993)"/><path d="M209.441 251.863h21.213v-.379h-21.213z" clip-path="url(#bR)" style="fill:#110f0d;fill-opacity:1;fill-rule:nonzero;stroke:none" transform="matrix(.9646 0 0 -.9646 -6.878 448.596)"/><text xml:space="preserve" x="302.66" y="-529.126" style="font-style:italic;font-variant:normal;font-weight:400;font-stretch:normal;font-size:4.07932px;font-family:&quot;Times New Roman&quot;;-inkscape-font-specification:TimesNewRomanPS-ItalicMT;writing-mode:lr-tb;fill:#0e0f0f;fill-opacity:1;fill-rule:nonzero;stroke:none;stroke-width:.72345" transform="matrix(1.33333 0 0 1.33333 -184.477 922.537)"><tspan x="302.66" y="-529.126" style="stroke-width:.72345">i</tspan></text><path d="M0 0c.078 0 .161 0 .161.092S.078.184 0 .184h-1.95c.055.616.584 1.058 1.233 1.058H0c.078 0 .161 0 .161.092s-.083.092-.161.092h-.727c-.786 0-1.411-.598-1.411-1.334 0-.736.625-1.334 1.411-1.334H0c.078 0 .161 0 .161.092s-.083.092-.161.092h-.717c-.649 0-1.178.442-1.233 1.058z" clip-path="url(#bS)" style="fill:#110f0d;fill-opacity:1;fill-rule:nonzero;stroke:none" transform="matrix(.9646 0 0 -.9646 223.385 215.897)"/><path d="M0 0c0 .16 0 .321-.179.321S-.358.16-.358 0v-8.271c0-.16 0-.321.179-.321S0-8.431 0-8.271Z" clip-path="url(#bT)" style="fill:#110f0d;fill-opacity:1;fill-rule:nonzero;stroke:none" transform="matrix(.9646 0 0 -.9646 195.149 207.52)"/><path d="M0 0c0 .16 0 .321-.179.321S-.358.16-.358 0v-8.271c0-.16 0-.321.179-.321S0-8.431 0-8.271Z" clip-path="url(#bU)" style="fill:#110f0d;fill-opacity:1;fill-rule:nonzero;stroke:none" transform="matrix(.9646 0 0 -.9646 215.977 207.52)"/><text xml:space="preserve" x="326.1" y="-532.104" style="font-style:italic;font-variant:normal;font-weight:400;font-stretch:normal;font-size:4.07932px;font-family:&quot;Times New Roman&quot;;-inkscape-font-specification:TimesNewRomanPS-ItalicMT;writing-mode:lr-tb;fill:#0e0f0f;fill-opacity:1;fill-rule:nonzero;stroke:none;stroke-width:.72345" transform="matrix(1.33333 0 0 1.33333 -184.477 922.537)"><tspan x="326.10049 338.68927" y="-532.104" style="stroke-width:.72345">ii</tspan></text><text xml:space="preserve" x="285.369" y="-531.386" style="font-style:italic;font-variant:normal;font-weight:400;font-stretch:normal;font-size:6.82821px;font-family:&quot;Times New Roman&quot;;-inkscape-font-specification:TimesNewRomanPS-ItalicMT;writing-mode:lr-tb;fill:#0e0f0f;fill-opacity:1;fill-rule:nonzero;stroke:none;stroke-width:.72345" transform="matrix(1.33333 0 0 1.33333 -184.477 922.537)"><tspan x="285.369" y="-531.386" style="stroke-width:.72345">B</tspan></text><text xml:space="preserve" x="309.47" y="-529.433" style="font-style:italic;font-variant:normal;font-weight:400;font-stretch:normal;font-size:3.48421px;font-family:&quot;Times New Roman&quot;;-inkscape-font-specification:TimesNewRomanPS-ItalicMT;writing-mode:lr-tb;fill:#0e0f0f;fill-opacity:1;fill-rule:nonzero;stroke:none;stroke-width:.72345" transform="matrix(1.33333 0 0 1.33333 -184.477 922.537)"><tspan x="309.46964 310.62985 312.17685 313.04791 314.40326" y="-529.433" style="stroke-width:.72345">(x,r)</tspan></text><text xml:space="preserve" x="306.686" y="-528.811" style="font-style:italic;font-variant:normal;font-weight:400;font-stretch:normal;font-size:4.46535px;font-family:&quot;Times New Roman&quot;;-inkscape-font-specification:TimesNewRomanPS-ItalicMT;writing-mode:lr-tb;fill:#0e0f0f;fill-opacity:1;fill-rule:nonzero;stroke:none;stroke-width:.72345" transform="matrix(1.33333 0 0 1.33333 -184.477 922.537)"><tspan x="306.686" y="-528.811" style="stroke-width:.72345">B</tspan></text><text xml:space="preserve" x="138.142" y="-558.491" style="font-variant:normal;font-weight:400;font-stretch:normal;font-size:8.6814px;font-family:&quot;Times New Roman&quot;;-inkscape-font-specification:TimesNewRomanPSMT;writing-mode:lr-tb;fill:#231f20;fill-opacity:1;fill-rule:nonzero;stroke:none;stroke-width:.72345" transform="matrix(1.33333 0 0 1.33333 -184.477 922.537)"><tspan x="138.14162 141.03252 145.37321 148.75027 151.16371 155.01825 159.35895 161.77238 164.18581 168.04034 170.45378 172.8672 177.20792 181.54861 184.92567 187.09602 191.43672 194.32764 198.66833 203.00903 206.86357 211.20427 214.09518 217.94972 220.36314 222.53349 226.87421 231.21489 235.06944 237.96034 241.8149 244.22832 248.56902 251.45993 253.63028 256.0437 259.89825 264.23895 268.09351" y="-558.491" style="stroke-width:.72345">Instantiations of neural operator layer</tspan></text><text xml:space="preserve" x="314.734" y="-404.213" style="font-variant:normal;font-weight:400;font-stretch:normal;font-size:7.5777px;font-family:&quot;Cambria Math&quot;;-inkscape-font-specification:CambriaMath;writing-mode:lr-tb;fill:#0e0f0f;fill-opacity:1;fill-rule:nonzero;stroke:none;stroke-width:.72345" transform="matrix(1.33333 0 0 1.33333 -184.477 922.537)"><tspan x="314.734" y="-404.213" style="stroke-width:.72345">ℱ</tspan></text><text xml:space="preserve" x="293.754" y="-404.161" style="font-variant:normal;font-weight:400;font-stretch:normal;font-size:7.79192px;font-family:&quot;Cambria Math&quot;;-inkscape-font-specification:CambriaMath;writing-mode:lr-tb;fill:#0e0f0f;fill-opacity:1;fill-rule:nonzero;stroke:none;stroke-width:.72345" transform="matrix(1.33333 0 0 1.33333 -184.477 922.537)"><tspan x="293.754" y="-404.161" style="stroke-width:.72345">ℱ</tspan></text><text xml:space="preserve" x="299.194" y="-406.756" style="font-variant:normal;font-weight:400;font-stretch:normal;font-size:4.54269px;font-family:&quot;Cambria Math&quot;;-inkscape-font-specification:CambriaMath;writing-mode:lr-tb;fill:#0e0f0f;fill-opacity:1;fill-rule:nonzero;stroke:none;stroke-width:.72345" transform="matrix(1.33333 0 0 1.33333 -184.477 922.537)"><tspan x="299.1944 300.70258" y="-406.756" style="stroke-width:.72345">-1</tspan></text><text xml:space="preserve" x="306.438" y="-404.161" style="font-style:italic;font-variant:normal;font-weight:400;font-stretch:normal;font-size:7.4383px;font-family:Cambria;-inkscape-font-specification:Cambria-Italic;writing-mode:lr-tb;fill:#0e0f0f;fill-opacity:1;fill-rule:nonzero;stroke:none;stroke-width:.72345" transform="matrix(1.33333 0 0 1.33333 -184.477 922.537)"><tspan x="306.438" y="-404.161" style="stroke-width:.72345">R</tspan></text><text xml:space="preserve" x="303.287" y="-404.883" style="font-style:italic;font-variant:normal;font-weight:400;font-stretch:normal;font-size:6.82821px;font-family:&quot;Times New Roman&quot;;-inkscape-font-specification:TimesNewRomanPS-ItalicMT;writing-mode:lr-tb;fill:#0e0f0f;fill-opacity:1;fill-rule:nonzero;stroke:none;stroke-width:.72345" transform="matrix(1.33333 0 0 1.33333 -184.477 922.537)"><tspan x="303.28674 305.56052 312.38873 314.09579 320.92401 323.19778 326.22952 328.5033 330.7771 333.0509 336.08261 338.35641 340.06348 344.67252 346.37958 349.79367 352.06747 355.09918 357.37299" y="-404.883" style="stroke-width:.72345">( . (v))(x) + b(x) </tspan></text></svg>